<svg width="203" height="60" viewBox="0 0 203 60" fill="none" xmlns="http://www.w3.org/2000/svg">
<g clip-path="url(#clip0_0_569)">
<path d="M0.000732422 14.4053C0.164079 14.4095 0.327426 14.4169 0.490772 14.4169C12.6833 14.4174 24.8753 14.4174 37.0673 14.4174H37.6891C37.6764 14.5939 37.6996 14.7473 37.6506 14.8732C37.3745 15.5909 37.0552 16.2933 36.8001 17.0178C36.4413 18.0374 36.1125 19.0675 35.8 20.1019C35.7083 20.4043 35.5693 20.5645 35.2536 20.5745C34.2277 20.6072 33.2023 20.6699 32.1764 20.6757C26.8471 20.7036 21.5182 20.7173 16.1889 20.7363C16.0714 20.7368 15.9534 20.7363 15.7542 20.7363V50.6415H9.09178V20.7321C6.00242 20.7073 3.00157 20.6831 0.000732422 20.6588V14.4053Z" fill="#FB0505"/>
<path d="M184.629 58.8722C185.206 57.2136 185.785 55.519 186.363 53.8879C186.486 53.5395 186.634 53.1923 186.828 52.8799C186.902 52.7595 187.135 52.6819 187.297 52.681C189.948 52.669 192.597 52.6729 195.248 52.6729H195.814V33.6107C195.644 33.6006 195.487 33.5838 195.331 33.5838C191.117 33.5822 186.903 33.587 182.69 33.5743C182.295 33.5733 182.156 33.6581 182.161 34.0865C182.202 37.3618 182.215 40.6372 182.238 43.9133C182.238 44.0016 182.247 44.0907 182.256 44.2746H193.397C192.64 46.4372 191.923 48.484 191.201 50.5472C189.783 50.5472 188.341 50.5562 186.899 50.545C184.472 50.5262 182.046 50.497 179.62 50.4645C179.174 50.4585 178.71 50.4893 178.287 50.3783C177.356 50.1345 175.905 49.2045 175.82 47.8965C175.507 43.0189 175.516 38.1375 175.606 33.2545C175.623 32.3323 175.722 31.4108 175.719 30.4892C175.714 28.8357 176.783 27.8767 178.055 27.5637C178.868 27.3634 179.726 27.2718 180.564 27.266C184.509 27.2385 188.454 27.2465 192.399 27.2639C194.452 27.2728 196.506 27.3282 198.56 27.3597C199.44 27.3735 200.281 27.5473 201.009 28.0627C201.756 28.5922 202.222 29.3157 202.286 30.2484C202.326 30.8422 202.337 31.4387 202.337 32.0336C202.339 38.1675 202.345 44.3016 202.326 50.4353C202.321 52.2807 202.236 54.1262 202.203 55.9716C202.178 57.3507 201.393 58.1573 200.193 58.612C199.746 58.7817 199.24 58.8658 198.759 58.87L184.629 58.8722Z" fill="#FB0505"/>
<path d="M105.642 33.5896C102.977 33.5764 99.8298 33.5822 97.1645 33.5822H96.6108V44.2262C96.7741 44.2382 96.8889 44.2545 97.0046 44.2549C100.413 44.2755 103.822 44.2973 107.231 44.3106C108.033 44.3136 108.837 44.2682 109.638 44.2798C110.091 44.2866 110.205 44.1143 110.204 43.6725C110.191 35.5592 110.194 27.4456 110.194 19.332V18.7329H116.776C116.785 18.9021 116.802 19.0601 116.802 19.2177C116.782 27.1975 116.763 35.1767 116.736 43.156C116.731 44.5253 116.727 45.8972 116.65 47.2639C116.583 48.4613 115.944 49.3262 114.906 49.9373C114.168 50.3728 113.358 50.3393 112.572 50.3633C109.27 50.4619 105.966 50.5686 102.663 50.5583C99.3896 50.548 96.1162 50.4319 92.8449 50.2952C91.7332 50.2485 90.8564 49.6022 90.3254 48.6366C90.1038 48.2346 90.0914 47.6886 90.0781 47.2052C90.0348 45.6276 90.0206 44.0496 90.0224 42.472C90.0271 38.6017 90.0468 34.7314 90.0618 30.8611C90.0622 30.6973 90.0875 30.5323 90.0755 30.3706C89.9859 29.1529 90.7394 28.3951 91.6055 27.7781C91.9861 27.5073 92.5544 27.4003 93.0403 27.3919C97.8918 27.306 102.744 27.2565 107.596 27.1975L105.642 33.5896Z" fill="#FB0505"/>
<path d="M48.5344 44.275L46.4292 50.488C46.4292 50.488 46.0156 50.497 45.8965 50.4966C41.1928 50.4872 36.4894 50.4833 31.7861 50.4619C30.8803 50.4576 29.9555 50.485 29.0745 50.3166C27.6971 50.0535 26.8952 49.3305 26.5848 47.938C26.4446 47.3106 26.3719 46.6553 26.3698 46.0116C26.3545 41.085 26.3493 36.1578 26.383 31.231C26.3877 30.5655 26.5663 29.8821 26.7756 29.2429C27.0379 28.4394 27.6139 27.8619 28.4522 27.6495C29.1109 27.4825 29.7906 27.3065 30.463 27.2975C34.6747 27.2433 38.8875 27.2243 43.0996 27.2164C45.0792 27.2121 47.0596 27.2311 49.0375 27.2991C49.7262 27.3223 50.4291 27.4577 51.0891 27.6611C52.0568 27.9599 52.6572 28.6797 52.8595 29.6697C52.9958 30.3363 53.1124 31.0234 53.1072 31.7C53.0892 34.2145 53.0434 36.729 52.9546 39.2418C52.9096 40.5318 51.5562 41.7453 50.1316 41.7932C47.9755 41.8654 45.8172 41.8896 43.6594 41.915C41.0247 41.946 38.39 41.9571 35.7554 41.9766C35.6232 41.9777 35.4914 41.9766 35.3054 41.9766V35.6957C35.493 35.6957 35.6658 35.6962 35.8387 35.6957C39.2179 35.6809 42.5965 35.6593 45.9758 35.6614C46.4018 35.6614 46.5604 35.5371 46.5372 35.1102C46.5106 34.6233 46.5312 34.1344 46.5312 33.6143H32.9237V34.1549C32.9237 37.2517 32.9237 40.3479 32.9237 43.444C32.9237 44.272 32.9237 44.2742 33.7426 44.2746L48.5344 44.275Z" fill="#FB0505"/>
<path d="M146.982 50.4959C146.978 50.4098 146.968 50.3069 146.968 50.2049C146.971 44.4278 146.973 38.6504 146.984 32.8738C146.986 32.1445 147.017 31.4147 147.064 30.687C147.172 29.0061 148.045 27.7747 149.768 27.4817C150.772 27.311 151.811 27.2999 152.834 27.2894C156.898 27.2483 160.961 27.2193 165.023 27.2183C166.809 27.2183 168.598 27.242 170.378 27.3653C171.065 27.4132 171.771 27.6872 172.397 28.0007C173.322 28.4645 173.689 29.3428 173.743 30.3445C173.789 31.2065 173.822 32.0702 173.828 32.9333C173.867 38.6504 173.896 44.3682 173.929 50.0853C173.929 50.231 173.929 50.3772 173.929 50.5486H167.216V33.6215H153.663V50.4959H146.982Z" fill="#FB0505"/>
<path d="M138.933 27.2668H145.429C145.447 27.4307 145.47 27.545 145.47 27.6594C145.465 33.9703 145.47 40.2814 145.434 46.5922C145.43 47.259 145.255 47.9507 145.023 48.5799C144.874 48.981 144.508 49.326 144.177 49.6286C143.545 50.2076 142.746 50.3752 141.912 50.3893C137.746 50.4579 133.581 50.5573 129.415 50.5753C127.051 50.5852 124.685 50.4742 122.322 50.3872C121.617 50.3615 120.914 50.3139 120.274 49.8926C119.367 49.2947 118.828 48.5473 118.822 47.4189C118.794 41.7931 118.745 36.1671 118.704 30.5411C118.697 29.5584 118.69 28.5762 118.682 27.594C118.68 27.3917 118.669 27.2099 118.969 27.2105C121.036 27.2178 123.105 27.2141 125.276 27.2141V44.217C125.505 44.2354 125.633 44.2539 125.761 44.2547C129.214 44.2753 132.667 44.2972 136.12 44.31C136.893 44.313 137.666 44.2732 138.439 44.2745C138.815 44.2749 138.943 44.1476 138.942 43.7499C138.928 38.4361 138.933 33.1225 138.933 27.8085V27.2668Z" fill="#FB0505"/>
<path d="M54.3724 27.2344H60.9475V27.8624C60.9475 33.1328 60.9535 38.4031 60.9381 43.6733C60.9373 44.1203 61.0663 44.2798 61.5111 44.2785C65.7977 44.2618 70.0843 44.2588 74.3713 44.2511C74.3995 44.2511 74.4283 44.2395 74.5431 44.2142V27.2644H81.1011C81.1135 27.4557 81.1311 27.6001 81.1315 27.7434C81.1495 33.088 81.177 38.4331 81.1753 43.7779C81.1748 45.1009 81.1183 46.4269 81.0158 47.7461C80.9421 48.6898 80.3893 49.3425 79.5891 49.8709C78.4521 50.6231 77.193 50.5039 75.9625 50.5061C70.4404 50.5172 64.9183 50.4898 59.3961 50.4606C58.5947 50.4563 57.7731 50.4653 56.9978 50.2969C55.9474 50.0681 55.1425 49.4531 54.726 48.3855C54.4975 47.8022 54.4508 47.2116 54.447 46.6103C54.408 40.2536 54.3771 33.8963 54.345 27.5395C54.345 27.453 54.36 27.3661 54.3724 27.2344Z" fill="#FB0505"/>
<path d="M24.2554 50.5522H17.73V27.2573H24.2554V50.5522Z" fill="#FB0505"/>
<path d="M34.345 25.5573C35.3582 24.5962 36.3736 23.6372 37.3843 22.6735C38.0414 22.0475 38.7032 21.4262 39.3386 20.7787C39.5821 20.5305 39.7791 20.512 40.0184 20.7397C40.4926 21.1907 40.9637 21.6455 41.4395 22.0949C42.4891 23.0855 43.542 24.073 44.5899 25.0652C44.7249 25.1927 44.8393 25.3424 44.9379 25.5405C44.0803 25.5626 43.2515 25.884 42.4217 25.3018C41.6371 24.7506 40.7534 24.3386 39.9019 23.887C39.7865 23.8253 39.5773 23.8343 39.4598 23.8991C38.6663 24.3349 37.8996 24.8223 37.0945 25.2359C36.6993 25.4388 36.2493 25.5742 35.8093 25.639C35.3466 25.7075 34.8661 25.6543 34.394 25.6543C34.3776 25.6221 34.3613 25.59 34.345 25.5573Z" fill="#FB0505"/>
<path d="M24.2511 25.8563H17.7314V23.4077H24.2511V25.8563Z" fill="#FB0505"/>
<path d="M136.323 25.5385C135.12 25.9864 133.996 26.0707 132.82 25.7024C131.3 25.226 129.754 24.8282 128.135 24.373C128.447 23.8655 128.725 23.4082 129.008 22.9529C129.109 22.7911 129.24 22.6457 129.325 22.476C129.605 21.9133 129.612 21.8854 130.179 22.1883C131.062 22.661 131.918 23.1842 132.798 23.6637C133.577 24.0884 134.375 24.4789 135.161 24.892C135.539 25.0906 135.908 25.3072 136.323 25.5385Z" fill="#FB0505"/>
<path d="M1.76098 11.3532C1.1977 10.9559 0.763513 10.4031 0.458426 9.69544C0.152808 8.98778 0 8.27173 0 7.5477C0 6.00437 0.502161 4.78663 1.50543 3.89454C2.50922 3.00246 3.75645 2.55615 5.24764 2.55615C5.94317 2.55615 6.62344 2.66364 7.28897 2.87915C7.95394 3.09467 8.33597 3.2069 8.43553 3.21639C8.601 4.23441 8.70746 4.98424 8.75486 5.46741C8.54198 5.58544 8.33383 5.60914 8.12991 5.53804C7.90757 4.79031 7.57299 4.20806 7.1256 3.79126C6.67826 3.37499 6.00009 3.16686 5.09117 3.16686C4.23912 3.16686 3.54357 3.56205 3.00348 4.35244C2.4639 5.14281 2.19412 6.11554 2.19412 7.27054C2.19412 8.41663 2.49025 9.4104 3.08199 10.2529C3.67372 11.0955 4.38613 11.5165 5.21919 11.5165C6.44957 11.5165 7.52661 11.0128 8.44976 10.0042C8.52514 10.0042 8.61416 10.0385 8.71586 10.1075C8.81756 10.176 8.88763 10.2435 8.9256 10.3098C7.92656 11.6161 6.69617 12.2695 5.23341 12.2695C3.77068 12.2695 2.61302 11.9639 1.76098 11.3532Z" fill="black"/>
<path d="M17.9219 4.52287C17.9219 4.23464 17.9003 4.00015 17.8576 3.82047C17.8149 3.64026 17.7322 3.50906 17.6094 3.42633C17.4861 3.34308 17.3665 3.28986 17.2506 3.26615C17.1347 3.24296 16.956 3.2261 16.7147 3.21662C16.6483 3.1692 16.6151 3.08436 16.6151 2.96106C16.6151 2.83776 16.6483 2.75766 16.7147 2.71973C17.4909 2.7387 18.2364 2.74818 18.951 2.74818C19.647 2.74818 20.3853 2.7387 21.1667 2.71973C21.2325 2.75766 21.2658 2.83671 21.2658 2.95737C21.2658 3.07803 21.2325 3.16445 21.1667 3.21662C20.9253 3.2261 20.7451 3.24296 20.6271 3.26615C20.5086 3.28986 20.3889 3.34308 20.2683 3.42633C20.1476 3.50906 20.0659 3.63921 20.0232 3.81678C19.9806 3.99436 19.9595 4.22989 19.9595 4.52287V10.3523C19.9595 10.641 19.9806 10.8755 20.0232 11.0557C20.0659 11.2354 20.1476 11.3666 20.2683 11.4493C20.3889 11.5325 20.5086 11.5858 20.6271 11.6095C20.7451 11.6332 20.9253 11.6495 21.1667 11.659C21.2325 11.6969 21.2658 11.7797 21.2658 11.9077C21.2658 12.0353 21.2325 12.118 21.1667 12.1559C20.39 12.1369 19.6518 12.1274 18.951 12.1274C18.2317 12.1274 17.4861 12.1369 16.7147 12.1559C16.6483 12.1085 16.6151 12.0273 16.6151 11.9109C16.6151 11.795 16.6483 11.7112 16.7147 11.659C16.956 11.6495 17.1347 11.6332 17.2506 11.6095C17.3665 11.5858 17.4861 11.5325 17.6094 11.4493C17.7322 11.3666 17.8149 11.2364 17.8576 11.0588C17.9003 10.8813 17.9219 10.6463 17.9219 10.3523V7.49103H13.413V10.3523C13.413 10.641 13.4351 10.8755 13.4804 11.0557C13.5252 11.2354 13.608 11.3666 13.7291 11.4493C13.8498 11.5325 13.9678 11.5858 14.0838 11.6095C14.1997 11.6332 14.3783 11.6495 14.6202 11.659C14.686 11.7064 14.7203 11.7892 14.7229 11.9077C14.725 12.0257 14.6908 12.1085 14.6202 12.1559C13.8435 12.1369 13.1073 12.1274 12.4118 12.1274C11.692 12.1274 10.9443 12.1369 10.1682 12.1559C10.1018 12.1085 10.0686 12.0247 10.0686 11.904C10.0686 11.7834 10.1018 11.7017 10.1682 11.659C10.4095 11.6495 10.5892 11.6332 10.7077 11.6095C10.8258 11.5858 10.9454 11.5325 11.0661 11.4493C11.1867 11.3666 11.2684 11.2364 11.3111 11.0588C11.3538 10.8813 11.3754 10.6463 11.3754 10.3523V4.52287C11.3754 4.23464 11.3538 4.00015 11.3111 3.82047C11.2684 3.64026 11.1867 3.50906 11.0661 3.42633C10.9454 3.34308 10.8273 3.28986 10.7114 3.26615C10.595 3.24296 10.4142 3.2261 10.1682 3.21662C10.1018 3.1692 10.0686 3.08436 10.0686 2.96106C10.0686 2.83776 10.1018 2.75766 10.1682 2.71973C10.9443 2.7387 11.692 2.74818 12.4118 2.74818C13.1073 2.74818 13.8435 2.7387 14.6202 2.71973C14.686 2.75766 14.7203 2.83671 14.7229 2.95737C14.725 3.07803 14.6908 3.16445 14.6202 3.21662C14.3783 3.2261 14.1997 3.24296 14.0838 3.26615C13.9678 3.28986 13.8498 3.34308 13.7291 3.42633C13.608 3.50906 13.5252 3.63921 13.4804 3.81678C13.4351 3.99436 13.413 4.22989 13.413 4.52287V6.78813H17.9219V4.52287Z" fill="black"/>
<path d="M24.9009 4.5371V8.21502C24.9009 8.62233 24.9104 8.95482 24.9294 9.21303C24.9483 9.4712 25.0158 9.76944 25.1317 10.1078C25.2476 10.446 25.4173 10.7216 25.6396 10.9345C26.1413 11.4177 26.7188 11.659 27.3722 11.659C27.8454 11.659 28.2527 11.5842 28.5931 11.4351C28.934 11.2865 29.1969 11.1026 29.3814 10.885C29.5663 10.6673 29.7118 10.3881 29.8182 10.0472C29.9246 9.70623 29.9899 9.39376 30.0131 9.10974C30.0368 8.82573 30.049 8.49007 30.049 8.10174V4.5371C30.049 4.22463 30.0347 3.98961 30.0063 3.83101C29.9778 3.67241 29.8999 3.54911 29.7718 3.46164C29.6443 3.37417 29.5173 3.31831 29.3924 3.2946C29.2665 3.27142 29.0383 3.24507 28.7069 3.21662C28.6595 3.1692 28.6357 3.08647 28.6357 2.96791C28.6357 2.84988 28.6595 2.76715 28.7069 2.71973C29.677 2.7387 30.295 2.74765 30.5601 2.74765C30.6454 2.74765 31.1639 2.7387 32.1151 2.71973C32.1625 2.76715 32.1862 2.84882 32.1862 2.96475C32.1862 3.08067 32.1625 3.16445 32.1151 3.21662C31.7647 3.25455 31.5291 3.2946 31.4084 3.33728C31.2878 3.37996 31.1887 3.49115 31.1102 3.67135C31.0322 3.85104 30.9932 4.13979 30.9932 4.5371V7.83882C30.9932 9.23514 30.6902 10.3227 30.0843 11.1015C29.4783 11.8803 28.4724 12.2697 27.0666 12.2697C25.7366 12.2697 24.7565 12.0658 24.1274 11.659C23.2848 11.1052 22.8633 10.1183 22.8633 8.69823V4.5371C22.8633 3.96432 22.7932 3.60601 22.6541 3.46164C22.5145 3.31726 22.2099 3.23559 21.7415 3.21662C21.7035 3.1692 21.6846 3.08647 21.6846 2.96791C21.6846 2.84988 21.7035 2.76715 21.7415 2.71973C22.7121 2.7387 23.4197 2.74765 23.8645 2.74765C24.4941 2.74765 25.2845 2.7387 26.2361 2.71973C26.283 2.76715 26.3083 2.84882 26.3104 2.96475C26.3131 3.08067 26.2878 3.16445 26.2361 3.21662C25.6539 3.23559 25.2856 3.31463 25.1317 3.45426C24.9778 3.59442 24.9009 3.95484 24.9009 4.5371Z" fill="black"/>
<path d="M37.8738 10.3523C37.8738 10.9345 37.955 11.296 38.1183 11.4351C38.2817 11.5752 38.669 11.6564 39.2796 11.6801C39.3171 11.7275 39.336 11.8092 39.336 11.9251C39.336 12.041 39.3171 12.118 39.2796 12.1559C38.3091 12.1369 37.5397 12.1274 36.9717 12.1274C36.224 12.1274 35.3741 12.1369 34.423 12.1559C34.3851 12.118 34.3661 12.041 34.3661 11.9251C34.3661 11.8092 34.3851 11.7275 34.423 11.6801C35.0332 11.6611 35.4215 11.581 35.5875 11.4388C35.7529 11.2965 35.8357 10.9345 35.8357 10.3523V8.36467C35.8357 8.10384 35.8194 7.91733 35.7861 7.8035C35.7529 7.69023 35.6723 7.52214 35.5448 7.29924L33.6916 4.1751C33.464 3.78728 33.2616 3.53646 33.0841 3.42264C32.907 3.30883 32.6546 3.24033 32.3285 3.21662C32.2805 3.1692 32.2573 3.08647 32.2573 2.96791C32.2573 2.84988 32.2763 2.76715 32.3137 2.71973C32.8959 2.7387 33.5847 2.74765 34.3803 2.74765C34.806 2.74765 35.4073 2.7387 36.1834 2.71973C36.2309 2.76715 36.2546 2.84882 36.2546 2.96475C36.2546 3.08067 36.2309 3.16445 36.1834 3.21662C35.7956 3.23559 35.5696 3.30777 35.5053 3.43318C35.4415 3.55859 35.4974 3.75619 35.6723 4.02597L37.192 6.70276C37.3148 6.91614 37.4238 6.92986 37.5187 6.74544L39.0167 3.92691C39.1347 3.71351 39.1269 3.547 38.9919 3.42633C38.8571 3.30567 38.6189 3.23559 38.2785 3.21662C38.2311 3.1692 38.2074 3.08647 38.2074 2.96791C38.2074 2.84988 38.2311 2.76715 38.2785 2.71973C39.0546 2.7387 39.5916 2.74765 39.8898 2.74765C40.2118 2.74765 40.6639 2.7387 41.2461 2.71973C41.2936 2.76715 41.3173 2.84882 41.3173 2.96475C41.3173 3.08067 41.2936 3.16445 41.2461 3.21662C40.8957 3.24981 40.6365 3.30777 40.4684 3.3905C40.3008 3.47323 40.1385 3.64712 39.9826 3.91269L38.1146 7.0226C37.9492 7.29714 37.8686 7.7018 37.8738 8.23662V10.3523Z" fill="black"/>
<path d="M47.9134 1.59764C47.9134 1.78206 47.8355 1.90747 47.679 1.97386C46.8459 1.72305 46.2446 1.45326 45.8756 1.16451C45.4397 1.48646 44.8436 1.75624 44.0863 1.97386C43.9487 1.91695 43.8802 1.7868 43.8802 1.58341C44.5003 1.18558 45.1179 0.681313 45.7333 0.0711347L45.9326 0C46.5339 0.601221 47.1939 1.13342 47.9134 1.59764ZM45.9326 6.8163C46.4345 6.8163 46.776 6.75836 46.9586 6.64243C47.1407 6.5265 47.2415 6.27411 47.2603 5.8863C47.3075 5.83886 47.4137 5.81516 47.5796 5.81516C47.745 5.81516 47.847 5.83886 47.8847 5.8863C47.8659 6.46851 47.8565 6.88693 47.8565 7.143C47.8565 7.31794 47.8659 7.7442 47.8847 8.42079C47.847 8.46823 47.745 8.49193 47.5796 8.49193C47.4137 8.49193 47.3075 8.46823 47.2603 8.42079C47.2415 8.08041 47.1373 7.84011 46.9474 7.70049C46.7584 7.56086 46.4199 7.49079 45.9326 7.49079H44.754V10.821C44.754 11.0148 44.8127 11.1792 44.9314 11.3142C45.0493 11.449 45.189 11.5165 45.3502 11.5165H46.8197C47.8376 11.5165 48.5216 10.8968 48.8717 9.65644C49.1224 9.59953 49.3406 9.62323 49.5253 9.72759C49.506 9.87407 49.4756 10.1238 49.4332 10.4763C49.3903 10.8294 49.344 11.1439 49.2943 11.4206C49.245 11.6977 49.1915 11.9427 49.1349 12.1557C48.2636 12.1367 47.5942 12.1272 47.1249 12.1272H43.71C42.6825 12.1367 41.9301 12.1461 41.4522 12.1557C41.4142 12.1177 41.3953 12.036 41.3953 11.9106C41.3953 11.7852 41.4142 11.7014 41.4522 11.6587C41.9965 11.6398 42.3443 11.5602 42.496 11.4206C42.6472 11.2815 42.7231 10.9253 42.7231 10.352V4.53681C42.7231 3.9551 42.6472 3.59416 42.496 3.45452C42.3443 3.31489 41.9965 3.23532 41.4522 3.21635C41.4142 3.16893 41.3953 3.0862 41.3953 2.96764C41.3953 2.84961 41.4142 2.76688 41.4522 2.71946L43.6959 2.74791H47.9846C48.2353 2.74791 48.4719 2.72895 48.6943 2.69101C48.732 2.69101 48.7539 2.70523 48.7586 2.73369C48.768 2.76214 48.7822 2.91021 48.801 3.17736C48.8195 3.44504 48.8413 3.74802 48.8649 4.0863C48.8884 4.42457 48.9099 4.677 48.9287 4.84243C48.7539 4.9278 48.5456 4.9515 48.3039 4.91357C48.129 4.3503 47.925 3.95036 47.6936 3.71324C47.4613 3.47665 47.0923 3.35862 46.5853 3.35862H45.3502C45.1843 3.35862 45.0437 3.43028 44.9276 3.57519C44.8119 3.71957 44.754 3.88397 44.754 4.06839V6.8163H45.9326Z" fill="black"/>
<path d="M59.2593 12.1274C59.0181 12.246 58.7129 12.305 58.3439 12.305C58.1451 12.1206 57.9505 11.9051 57.7615 11.659L52.8908 5.8718C52.7301 5.67787 52.6139 5.58093 52.5428 5.58093C52.4669 5.58093 52.4292 5.67787 52.4292 5.8718V10.1963C52.4292 10.6415 52.4708 10.9608 52.5535 11.1548C52.6362 11.3492 52.7498 11.4719 52.8942 11.5241C53.0386 11.5763 53.3048 11.6211 53.6931 11.659C53.7312 11.6969 53.7501 11.7797 53.7501 11.9072C53.7501 12.0353 53.7312 12.118 53.6931 12.1559C52.7223 12.1369 52.1806 12.1274 52.0671 12.1274C51.9295 12.1274 51.3852 12.1369 50.4342 12.1559C50.3961 12.118 50.3772 12.0363 50.3772 11.9109C50.3772 11.7855 50.3961 11.7017 50.4342 11.659C50.8221 11.6211 51.0895 11.5736 51.2365 11.5167C51.3831 11.4604 51.4962 11.335 51.5768 11.1405C51.6578 10.9466 51.6976 10.632 51.6976 10.1963V4.13241C51.6501 3.91953 51.5202 3.71825 51.3072 3.52908C51.0942 3.33992 50.8435 3.23559 50.5546 3.21662C50.5169 3.1692 50.4968 3.08647 50.4946 2.96791C50.4921 2.84988 50.5122 2.76715 50.5546 2.71973L52.9191 2.74765L54.2185 4.27468L58.0739 8.81887C58.1823 8.94641 58.2715 9.0128 58.3401 9.01751C58.4086 9.02227 58.4502 8.93956 58.4643 8.76937V4.67934C58.4643 4.23464 58.4228 3.91479 58.3401 3.72088C58.2573 3.52698 58.1425 3.40368 57.9959 3.35151C57.8489 3.29934 57.5819 3.25455 57.1936 3.21662C57.1461 3.1692 57.1225 3.08647 57.1225 2.96791C57.1225 2.84988 57.1461 2.76715 57.1936 2.71973C58.1635 2.7387 58.7275 2.74765 58.8835 2.74765C58.9782 2.74765 59.5015 2.7387 60.4525 2.71973C60.5001 2.76715 60.5236 2.84882 60.5236 2.96475C60.5236 3.08067 60.5001 3.16445 60.4525 3.21662C60.0642 3.25455 59.7981 3.30198 59.6536 3.35889C59.5092 3.41527 59.3956 3.5412 59.3133 3.73511C59.2302 3.92902 59.1882 4.24412 59.1882 4.67934V10.6436L59.2593 12.1274Z" fill="black"/>
<path d="M70.3646 10.3379C70.3646 10.9202 70.4473 11.2816 70.6131 11.4207C70.7786 11.5609 71.1669 11.64 71.7776 11.6589C71.8157 11.6969 71.8346 11.7796 71.8346 11.9076C71.8346 12.0351 71.8157 12.1179 71.7776 12.1558C70.8073 12.1368 69.9883 12.1274 69.3206 12.1274C68.6726 12.1274 67.872 12.1368 66.921 12.1558C66.8833 12.1179 66.864 12.0362 66.864 11.9108C66.864 11.7854 66.8833 11.7016 66.921 11.6589C67.5317 11.64 67.9196 11.5609 68.0854 11.4207C68.2509 11.2816 68.3336 10.9202 68.3336 10.3379V4.7715C68.3336 4.29832 68.283 3.93947 68.1814 3.69603C68.0794 3.45206 67.9007 3.33035 67.6449 3.33035H66.9351C66.4427 3.33035 66.0489 3.44627 65.7527 3.67811C65.4574 3.90996 65.2359 4.30779 65.0889 4.87106C64.8381 4.87106 64.6491 4.84736 64.521 4.79996C64.7147 3.96687 64.836 3.25921 64.8827 2.67696C64.8827 2.64851 64.9046 2.63428 64.947 2.63428C65.9267 2.71016 67.056 2.74809 68.3336 2.74809H70.3787C71.6666 2.74809 72.7526 2.71016 73.638 2.63428C73.6663 2.63428 73.6804 2.64851 73.6804 2.67696C73.6899 3.3256 73.7537 4.01904 73.8724 4.75727C73.7631 4.80467 73.5741 4.82837 73.3041 4.82837C73.1859 4.28408 72.9716 3.89837 72.6613 3.67074C72.3514 3.44363 71.9173 3.33035 71.3589 3.33035H71.0391C70.788 3.33035 70.6131 3.45312 70.5137 3.69919C70.4147 3.9458 70.3646 4.31726 70.3646 4.81415V10.3379Z" fill="black"/>
<path d="M80.411 5.33956C80.411 3.92426 79.7819 3.21659 78.5227 3.21659C78.1533 3.21659 77.9155 3.30301 77.8092 3.47584C77.7029 3.64868 77.6493 3.99328 77.6493 4.5086V7.3988H78.2746C78.9702 7.3988 79.4999 7.26127 79.8646 6.98673C80.2293 6.71274 80.411 6.16314 80.411 5.33956ZM78.9912 2.62012C80.066 2.62012 80.8752 2.77872 81.4199 3.09593C82.1673 3.54065 82.5389 4.20616 82.5346 5.09086C82.5346 5.76796 82.3696 6.3149 82.0409 6.73117C81.7117 7.148 81.3153 7.45306 80.8516 7.6475L82.8256 10.7005C83.048 11.0414 83.2585 11.2859 83.4573 11.435C83.6557 11.5842 83.912 11.659 84.2245 11.659C84.2527 11.7159 84.2695 11.8007 84.2742 11.9145C84.2789 12.0284 84.2665 12.1085 84.2386 12.1559C84.0822 12.2318 83.5876 12.2697 82.7545 12.2697C82.0683 12.2697 81.4293 11.8387 80.8375 10.9772L79.1335 8.44949C79.0242 8.27454 78.8857 8.15759 78.7182 8.09801C78.5502 8.039 78.1932 8.00951 77.6493 8.00951V10.3522C77.6493 10.6415 77.6716 10.8755 77.717 11.0557C77.7616 11.2353 77.8443 11.3666 77.9652 11.4493C78.086 11.5325 78.2043 11.5857 78.3205 11.6095C78.4362 11.6332 78.6149 11.6495 78.8562 11.659C78.9226 11.7064 78.9569 11.7891 78.9595 11.9072C78.9616 12.0257 78.9273 12.1085 78.8562 12.1559C78.08 12.1369 77.3437 12.1274 76.6482 12.1274C75.9286 12.1274 75.1807 12.1369 74.4042 12.1559C74.3382 12.1085 74.3052 12.0247 74.3052 11.904C74.3052 11.7833 74.3382 11.7017 74.4042 11.659C74.6459 11.6495 74.8259 11.6332 74.9442 11.6095C75.0625 11.5857 75.182 11.5325 75.3025 11.4493C75.4233 11.3666 75.5047 11.2364 75.5476 11.0588C75.5905 10.8812 75.6115 10.6457 75.6115 10.3522V4.52283C75.6115 4.23461 75.5905 4.00013 75.5476 3.81992C75.5047 3.64024 75.4233 3.50904 75.3025 3.42631C75.182 3.34306 75.0633 3.29036 74.9476 3.26612C74.8315 3.24294 74.6502 3.22608 74.4042 3.21659C74.3382 3.16917 74.3052 3.08434 74.3052 2.96104C74.3052 2.83774 74.3382 2.75764 74.4042 2.7197C74.5987 2.7197 75.3633 2.70284 76.6979 2.66965C78.0325 2.63645 78.797 2.62012 78.9912 2.62012Z" fill="black"/>
<path d="M88.3359 8.00931H90.5435L89.3581 4.56531H89.2586L87.9665 7.81748C87.9523 7.84594 87.9476 7.87178 87.9523 7.89548C87.9571 7.91918 87.9665 7.93817 87.9806 7.9524C87.9948 7.96663 88.0188 7.9782 88.0518 7.98771C88.0843 7.99718 88.1233 8.00348 88.1688 8.00563C88.2138 8.00824 88.2695 8.00931 88.3359 8.00931ZM86.7665 10.977C86.7571 11.0718 86.7429 11.1556 86.7241 11.2293C86.7048 11.3026 86.7309 11.3642 86.8021 11.4138C86.8732 11.4633 86.9311 11.5023 86.9756 11.5308C87.0206 11.5592 87.1012 11.5829 87.2173 11.6019C87.3331 11.6208 87.4231 11.633 87.4869 11.6372C87.5512 11.6424 87.6446 11.6493 87.7676 11.6588C87.8053 11.6967 87.8242 11.7795 87.8242 11.907C87.8242 12.035 87.8053 12.1177 87.7676 12.1557C87.0481 12.1367 86.4039 12.1272 85.8361 12.1272C85.6423 12.1272 85.1855 12.1367 84.4659 12.1557C84.4188 12.1177 84.3948 12.0361 84.3948 11.9106C84.3948 11.7852 84.4188 11.7015 84.4659 11.6588C84.7171 11.6398 84.9133 11.6114 85.0552 11.5734C85.1975 11.5355 85.3488 11.4449 85.5095 11.2999C85.6706 11.1556 85.8078 10.9369 85.9213 10.6434L89.0739 3.20216C89.4339 3.20216 89.9688 2.98665 90.6785 2.55615L93.6751 10.8779C93.7226 11.0244 93.7873 11.1461 93.8705 11.2436C93.9532 11.3405 94.0183 11.4127 94.0655 11.4601C94.1131 11.5076 94.2146 11.5476 94.3711 11.5808C94.5271 11.614 94.6175 11.6303 94.6411 11.6303C94.6642 11.6303 94.7782 11.6398 94.9813 11.6588C95.0195 11.6967 95.0383 11.7795 95.0383 11.907C95.0383 12.035 95.0195 12.1177 94.9813 12.1557C94.2622 12.1367 93.6133 12.1272 93.0361 12.1272C92.0936 12.1272 91.2635 12.1367 90.5435 12.1557C90.4968 12.1177 90.4732 12.0361 90.4732 11.9106C90.4732 11.7852 90.4968 11.7015 90.5435 11.6588C90.6005 11.6588 90.6763 11.6562 90.7711 11.6514C90.8658 11.6472 90.9386 11.6424 90.9909 11.6372C91.0432 11.633 91.1058 11.6282 91.1795 11.6229C91.2528 11.6182 91.3081 11.6093 91.3462 11.595C91.3839 11.5808 91.4276 11.5666 91.4773 11.5524C91.5275 11.5381 91.5639 11.5165 91.5875 11.4881C91.6111 11.4601 91.6303 11.4254 91.6445 11.3853C91.6586 11.3453 91.6633 11.3015 91.6586 11.2541C91.6539 11.2067 91.6419 11.1498 91.6235 11.0834L90.8066 8.71221H88.0445C87.8696 8.71221 87.7509 8.72854 87.6892 8.76176C87.6275 8.79493 87.5761 8.86136 87.5332 8.9604L86.7665 10.977Z" fill="black"/>
<path d="M104.298 12.1274C104.056 12.246 103.751 12.305 103.381 12.305C103.182 12.1206 102.988 11.9051 102.799 11.659L97.9281 5.8718C97.7674 5.67787 97.6513 5.58093 97.5801 5.58093C97.5043 5.58093 97.4665 5.67787 97.4665 5.8718V10.1963C97.4665 10.6415 97.5081 10.9608 97.5908 11.1548C97.6736 11.3492 97.7875 11.4719 97.932 11.5241C98.076 11.5763 98.3421 11.6211 98.7304 11.659C98.7686 11.6969 98.7874 11.7797 98.7874 11.9072C98.7874 12.0353 98.7686 12.118 98.7304 12.1559C97.7601 12.1369 97.2184 12.1274 97.1044 12.1274C96.9677 12.1274 96.4234 12.1369 95.4715 12.1559C95.4338 12.118 95.4146 12.0363 95.4146 11.9109C95.4146 11.7855 95.4338 11.7017 95.4715 11.659C95.8594 11.6211 96.1273 11.5736 96.2743 11.5167C96.4204 11.4604 96.5344 11.335 96.615 11.1405C96.6951 10.9466 96.7358 10.632 96.7358 10.1963V4.13241C96.6883 3.91953 96.558 3.71825 96.3446 3.52908C96.132 3.33992 95.8808 3.23559 95.5924 3.21662C95.5543 3.1692 95.5341 3.08647 95.532 2.96791C95.5294 2.84988 95.5495 2.76715 95.5924 2.71973L97.9564 2.74765L99.2558 4.27468L103.111 8.81887C103.221 8.94641 103.309 9.0128 103.378 9.01751C103.446 9.02227 103.488 8.93956 103.502 8.76937V4.67934C103.502 4.23464 103.461 3.91479 103.378 3.72088C103.295 3.52698 103.18 3.40368 103.034 3.35151C102.886 3.29934 102.619 3.25455 102.231 3.21662C102.184 3.1692 102.16 3.08647 102.16 2.96791C102.16 2.84988 102.184 2.76715 102.231 2.71973C103.202 2.7387 103.765 2.74765 103.921 2.74765C104.016 2.74765 104.539 2.7387 105.49 2.71973C105.537 2.76715 105.561 2.84882 105.561 2.96475C105.561 3.08067 105.537 3.16445 105.49 3.21662C105.102 3.25455 104.835 3.30198 104.691 3.35889C104.547 3.41527 104.433 3.5412 104.351 3.73511C104.268 3.92902 104.226 4.24412 104.226 4.67934V10.6436L104.298 12.1274Z" fill="black"/>
<path d="M111.802 2.55615C112.47 2.55615 113.184 2.64098 113.943 2.81171C114.703 2.98191 115.189 3.06727 115.402 3.06727C115.511 4.15115 115.617 4.94683 115.722 5.45318L115.083 5.53804C114.87 4.84247 114.48 4.2734 113.915 3.83078C113.349 3.38816 112.576 3.16686 111.597 3.16686C110.673 3.16686 109.937 3.52675 109.388 4.246C108.825 4.98424 108.543 6.02597 108.543 7.37014C108.543 7.88601 108.608 8.38448 108.738 8.86504C108.869 9.34504 109.065 9.80083 109.328 10.2313C109.59 10.6624 109.956 11.008 110.425 11.2683C110.894 11.5286 111.438 11.6588 112.058 11.6588C112.455 11.6588 112.786 11.6161 113.049 11.5308C113.311 11.4459 113.563 11.2847 113.805 11.0481V8.8824C113.805 8.61261 113.719 8.43874 113.549 8.36074C113.379 8.28223 113.066 8.2248 112.612 8.18687C112.564 8.13947 112.541 8.04724 112.541 7.90971C112.541 7.77218 112.564 7.68523 112.612 7.6473C113.525 7.66573 114.247 7.67524 114.777 7.67524C115.35 7.67524 115.928 7.66573 116.51 7.6473C116.557 7.68523 116.58 7.77218 116.58 7.90971C116.58 8.04724 116.557 8.13947 116.51 8.18687C116.287 8.2053 116.121 8.2659 116.01 8.3676C115.898 8.4693 115.842 8.64107 115.842 8.8824V10.5865C115.842 10.7335 115.92 10.8684 116.077 10.9912C115.594 11.389 114.962 11.7015 114.181 11.9286C113.4 12.1557 112.581 12.2695 111.724 12.2695C110.115 12.2695 108.856 11.9028 107.947 11.1687C107.43 10.7525 107.035 10.2313 106.761 9.60694C106.486 8.982 106.349 8.33335 106.349 7.66101C106.349 6.06124 106.881 4.8093 107.947 3.90508C108.998 3.00562 110.283 2.55615 111.802 2.55615Z" fill="black"/>
<path d="M57.1788 57.4641C57.1788 57.7427 57.2182 57.915 57.2975 57.9819C57.3764 58.0487 57.5619 58.086 57.8538 58.095C57.8718 58.1134 57.8812 58.1529 57.8812 58.2141C57.8812 58.2754 57.8718 58.3149 57.8538 58.3329C57.3901 58.3239 56.9988 58.3196 56.6799 58.3196C56.3701 58.3196 55.9874 58.3239 55.5327 58.3329C55.5147 58.3149 55.5061 58.2759 55.5061 58.2159C55.5061 58.1554 55.5147 58.1156 55.5327 58.095C55.8245 58.086 56.0101 58.0487 56.0894 57.9819C56.1687 57.915 56.2081 57.7427 56.2081 57.4641V54.804C56.2081 54.5777 56.1841 54.4067 56.1352 54.2901C56.0864 54.1731 56.0011 54.1153 55.8789 54.1153H55.5395C55.3047 54.1153 55.1161 54.1706 54.9747 54.2816C54.8328 54.3921 54.7278 54.5824 54.6575 54.8511C54.5375 54.8511 54.4471 54.8404 54.3862 54.8177C54.4788 54.4196 54.5362 54.0814 54.5589 53.8029C54.5589 53.7896 54.5692 53.7827 54.5894 53.7827C55.0578 53.8191 55.5974 53.8371 56.2081 53.8371H57.1852C57.8007 53.8371 58.3197 53.8191 58.7427 53.7827C58.7564 53.7827 58.7632 53.7896 58.7632 53.8029C58.7675 54.1131 58.7979 54.444 58.8549 54.7971C58.8027 54.8199 58.7122 54.8314 58.5832 54.8314C58.5267 54.5709 58.4247 54.3866 58.2764 54.2781C58.1281 54.1693 57.9207 54.1153 57.6537 54.1153H57.5007C57.3811 54.1153 57.2975 54.174 57.2499 54.2919C57.2028 54.4093 57.1788 54.5867 57.1788 54.8246V57.4641Z" fill="black"/>
<path d="M60.8596 59.2155C60.8596 59.1002 60.9025 58.999 60.9873 58.9137C61.0722 58.8272 61.1913 58.7843 61.3452 58.7843C61.4789 58.7843 61.5873 58.8319 61.6705 58.9266C61.7545 59.0217 61.7965 59.1272 61.7965 59.2425C61.7965 59.344 61.7502 59.4417 61.6576 59.5343C61.5646 59.6269 61.4472 59.6736 61.3045 59.6736C61.1712 59.6736 61.0636 59.6269 60.9817 59.5343C60.9007 59.4417 60.8596 59.335 60.8596 59.2155ZM60.7923 56.3517H61.847L61.2809 54.7056H61.2333L60.6157 56.26C60.6089 56.2733 60.6068 56.2858 60.6089 56.2973C60.611 56.3085 60.6158 56.3175 60.6226 56.3243C60.6295 56.3312 60.6406 56.3368 60.6565 56.341C60.6719 56.3458 60.6912 56.3483 60.7122 56.3496C60.7336 56.3513 60.7602 56.3517 60.7923 56.3517ZM60.0423 57.7695C60.0376 57.8149 60.0307 57.8556 60.0217 57.8903C60.0127 57.925 60.0252 57.9546 60.0595 57.9782C60.0929 58.0022 60.1207 58.021 60.1422 58.0348C60.1636 58.0485 60.2022 58.0596 60.2575 58.0686C60.3132 58.0772 60.356 58.0832 60.3865 58.0853C60.4169 58.0879 60.4619 58.0909 60.5202 58.0952C60.5386 58.1136 60.5476 58.153 60.5476 58.2143C60.5476 58.2756 60.5386 58.315 60.5202 58.333C60.1769 58.324 59.8692 58.3193 59.5979 58.3193C59.5049 58.3193 59.2863 58.324 58.9426 58.333C58.9199 58.315 58.9092 58.276 58.9092 58.216C58.9092 58.156 58.9199 58.1157 58.9426 58.0952C59.063 58.087 59.1565 58.0733 59.2246 58.0549C59.2919 58.0369 59.3647 57.9932 59.4419 57.9242C59.5186 57.8556 59.5842 57.7506 59.6382 57.6105L61.1446 54.0542C61.3165 54.0542 61.5727 53.9513 61.9117 53.7456L63.3436 57.7223C63.3663 57.7922 63.3972 57.8509 63.437 57.8972C63.4765 57.9435 63.5073 57.9778 63.53 58.0005C63.5527 58.0232 63.6016 58.0425 63.6762 58.0583C63.7507 58.0742 63.7936 58.0819 63.8052 58.0819C63.8163 58.0819 63.8712 58.087 63.968 58.0952C63.986 58.1136 63.9955 58.153 63.9955 58.2143C63.9955 58.2756 63.986 58.315 63.968 58.333C63.6239 58.324 63.314 58.3193 63.0385 58.3193C62.5885 58.3193 62.1912 58.324 61.847 58.333C61.8243 58.315 61.8136 58.276 61.8136 58.216C61.8136 58.156 61.8243 58.1157 61.847 58.0952C61.8745 58.0952 61.9109 58.0943 61.9559 58.0922C62.0009 58.09 62.0365 58.0879 62.0609 58.0853C62.0858 58.0832 62.1158 58.081 62.1513 58.0785C62.186 58.0763 62.213 58.0716 62.2306 58.0652C62.2486 58.0583 62.2696 58.0515 62.2936 58.0446C62.3172 58.0377 62.3348 58.0275 62.3463 58.0142C62.3579 58.0005 62.3669 57.9842 62.3729 57.9645C62.3797 57.9456 62.3823 57.9246 62.3797 57.9019C62.3776 57.8796 62.372 57.8522 62.363 57.8209L61.9726 56.6873H60.653C60.5695 56.6873 60.5125 56.695 60.4833 56.7109C60.4538 56.7267 60.4285 56.7585 60.4087 56.8065L60.0423 57.7695Z" fill="black"/>
<path d="M66.4423 53.7759C66.9553 53.7759 67.3423 53.8517 67.6024 54.003C67.9599 54.216 68.1373 54.5336 68.1351 54.9566C68.1351 55.4387 67.9804 55.806 67.6706 56.0597C67.401 56.2813 66.9613 56.3932 66.3506 56.3953C66.2846 56.3953 66.2036 56.3889 66.1059 56.3752C66.0133 56.3143 65.967 56.2166 65.967 56.0833C66.0643 56.097 66.1809 56.1035 66.3163 56.1035C66.5992 56.1035 66.7984 56.0233 66.9137 55.8626C67.029 55.7023 67.0864 55.44 67.0864 55.0753C67.0864 54.3995 66.7967 54.0609 66.2177 54.0609C66.0416 54.0609 65.928 54.102 65.877 54.1847C65.826 54.2675 65.8007 54.432 65.8007 54.6785V57.471C65.8007 57.6095 65.8114 57.7209 65.8329 57.807C65.8547 57.8927 65.8941 57.9562 65.9516 57.9956C66.009 58.035 66.066 58.0603 66.1213 58.0719C66.1766 58.083 66.2619 58.0907 66.3776 58.095C66.4089 58.1177 66.4251 58.1572 66.4264 58.2142C66.4281 58.2707 66.4114 58.3102 66.3776 58.3329C66.0064 58.3239 65.655 58.3196 65.322 58.3196C64.9783 58.3196 64.6213 58.3239 64.2502 58.3329C64.218 58.3102 64.2021 58.2699 64.2021 58.2125C64.2021 58.1546 64.218 58.1156 64.2502 58.095C64.3654 58.0907 64.4516 58.083 64.5077 58.0719C64.5643 58.0603 64.6217 58.035 64.6792 57.9956C64.737 57.9562 64.776 57.8932 64.7961 57.8083C64.8167 57.7235 64.8266 57.6116 64.8266 57.471V54.6853C64.8266 54.5473 64.8167 54.4355 64.7961 54.3493C64.776 54.2632 64.737 54.2006 64.6792 54.1612C64.6217 54.1217 64.5647 54.0965 64.5094 54.0849C64.4542 54.0737 64.3676 54.0652 64.2502 54.0609C64.218 54.0382 64.2021 53.9979 64.2021 53.9387C64.2021 53.8796 64.218 53.8419 64.2502 53.8235C64.3427 53.8235 64.7079 53.8153 65.346 53.7995C65.9837 53.7836 66.3493 53.7759 66.4423 53.7759Z" fill="black"/>
<path d="M71.1381 57.9499C70.869 57.7596 70.6611 57.4956 70.5154 57.1575C70.3692 56.8189 70.2964 56.4769 70.2964 56.131C70.2964 55.3939 70.5364 54.8115 71.016 54.385C71.4951 53.959 72.0917 53.7456 72.8044 53.7456C73.1365 53.7456 73.4618 53.797 73.7794 53.8999C74.0974 54.0027 74.28 54.0563 74.3275 54.061C74.4064 54.5475 74.4578 54.9057 74.4805 55.1367C74.3785 55.1929 74.2791 55.2045 74.1814 55.1702C74.0755 54.8132 73.9157 54.5355 73.7014 54.3362C73.4875 54.1369 73.164 54.0375 72.7294 54.0375C72.3227 54.0375 71.9897 54.226 71.7321 54.604C71.4741 54.9816 71.3451 55.4466 71.3451 55.9986C71.3451 56.5463 71.4865 57.0216 71.7694 57.424C72.0518 57.8265 72.3921 58.0279 72.7907 58.0279C73.3787 58.0279 73.8934 57.7866 74.3344 57.3049C74.3708 57.3049 74.4128 57.3212 74.4621 57.3546C74.5105 57.3872 74.5435 57.4193 74.5615 57.451C74.0845 58.075 73.4965 58.387 72.7975 58.387C72.0981 58.387 71.5452 58.2418 71.1381 57.9499Z" fill="black"/>
<path d="M78.8605 54.6851C78.8605 54.5471 78.8506 54.4348 78.8305 54.3491C78.8099 54.263 78.7705 54.2004 78.7113 54.161C78.6531 54.1215 78.5956 54.0962 78.5403 54.0842C78.4851 54.0735 78.3998 54.0654 78.2841 54.0607C78.2528 54.038 78.2369 53.9977 78.2369 53.9385C78.2369 53.8798 78.2528 53.8417 78.2841 53.8232C78.6552 53.8322 79.0113 53.837 79.3529 53.837C79.6855 53.837 80.0382 53.8322 80.4115 53.8232C80.4432 53.8417 80.4586 53.879 80.4586 53.9368C80.4586 53.9947 80.4432 54.0358 80.4115 54.0607C80.2962 54.0654 80.2101 54.0735 80.1539 54.0842C80.0973 54.0962 80.0399 54.1215 79.9825 54.161C79.9246 54.2004 79.8856 54.2625 79.8655 54.3474C79.8449 54.4322 79.8351 54.545 79.8351 54.6851V57.4704C79.8351 57.6092 79.8449 57.7207 79.8655 57.8068C79.8856 57.893 79.9246 57.956 79.9825 57.9954C80.0399 58.0348 80.0973 58.0601 80.1539 58.0712C80.2101 58.0828 80.2962 58.0905 80.4115 58.0948C80.4432 58.1132 80.4586 58.1527 80.4586 58.214C80.4586 58.2752 80.4432 58.3147 80.4115 58.3327C80.0403 58.3237 79.6872 58.319 79.3529 58.319C79.0092 58.319 78.6531 58.3237 78.2841 58.3327C78.2528 58.31 78.2369 58.271 78.2369 58.2157C78.2369 58.1604 78.2528 58.1201 78.2841 58.0948C78.3998 58.0905 78.4851 58.0828 78.5403 58.0712C78.5956 58.0601 78.6531 58.0348 78.7113 57.9954C78.7705 57.956 78.8099 57.8934 78.8305 57.8081C78.8506 57.7232 78.8605 57.611 78.8605 57.4704V56.1032H76.7061V57.4704C76.7061 57.6092 76.7172 57.7207 76.7382 57.8068C76.7596 57.893 76.7995 57.956 76.8573 57.9954C76.9148 58.0348 76.9718 58.0601 77.0271 58.0712C77.0823 58.0828 77.1676 58.0905 77.2829 58.0948C77.3146 58.118 77.3309 58.1574 77.3322 58.214C77.3335 58.2705 77.3168 58.31 77.2829 58.3327C76.9122 58.3237 76.5599 58.319 76.2278 58.319C75.8841 58.319 75.5262 58.3237 75.1559 58.3327C75.1238 58.31 75.1079 58.2697 75.1079 58.2122C75.1079 58.1544 75.1238 58.1154 75.1559 58.0948C75.2708 58.0905 75.3573 58.0828 75.4135 58.0712C75.4701 58.0601 75.5275 58.0348 75.5849 57.9954C75.6423 57.956 75.6818 57.8934 75.7019 57.8081C75.7225 57.7232 75.7323 57.611 75.7323 57.4704V54.6851C75.7323 54.5471 75.7225 54.4348 75.7019 54.3491C75.6818 54.263 75.6423 54.2004 75.5849 54.161C75.5275 54.1215 75.4705 54.0962 75.4152 54.0842C75.3599 54.0735 75.2733 54.0654 75.1559 54.0607C75.1238 54.038 75.1079 53.9977 75.1079 53.9385C75.1079 53.8798 75.1238 53.8417 75.1559 53.8232C75.5262 53.8322 75.8841 53.837 76.2278 53.837C76.5599 53.837 76.9122 53.8322 77.2829 53.8232C77.3146 53.8417 77.3309 53.879 77.3322 53.9368C77.3335 53.9947 77.3168 54.0358 77.2829 54.0607C77.1676 54.0654 77.0823 54.0735 77.0271 54.0842C76.9718 54.0962 76.9148 54.1215 76.8573 54.161C76.7995 54.2004 76.7596 54.2625 76.7382 54.3474C76.7172 54.4322 76.7061 54.545 76.7061 54.6851V55.7672H78.8605V54.6851Z" fill="black"/>
<path d="M82.169 52.5308C82.3683 52.6233 82.5187 52.751 82.6207 52.9143L82.6002 52.9953L81.599 53.399C81.5154 53.4312 81.434 53.4466 81.3552 53.4466C81.323 53.4466 81.2926 53.4363 81.2613 53.4158C81.2313 53.396 81.2159 53.372 81.2159 53.3446C81.2159 53.2885 81.2399 53.24 81.287 53.1989C81.4953 53.018 81.7893 52.7952 82.169 52.5308ZM81.4092 54.6852C81.4092 54.5472 81.3989 54.4353 81.3787 54.3492C81.3582 54.263 81.3192 54.2005 81.2613 54.161C81.2039 54.1216 81.1473 54.0963 81.0916 54.0848C81.0363 54.0736 80.9497 54.0655 80.8323 54.0608C80.8006 54.038 80.7852 53.9978 80.7852 53.9386C80.7852 53.8803 80.8006 53.8418 80.8323 53.8233C81.2034 53.8323 81.5604 53.837 81.9046 53.837C82.2372 53.837 82.5886 53.8323 82.9597 53.8233C82.9919 53.8418 83.0082 53.8795 83.009 53.9369C83.0103 53.9952 82.994 54.0359 82.9597 54.0608C82.8449 54.0655 82.7592 54.0736 82.7034 54.0848C82.6482 54.0963 82.5916 54.1216 82.5337 54.161C82.4763 54.2005 82.4369 54.2626 82.4154 54.3475C82.3936 54.4323 82.3833 54.545 82.3833 54.6852V57.4709C82.3833 57.6085 82.3936 57.7208 82.4154 57.8069C82.4369 57.893 82.4763 57.956 82.5337 57.9955C82.5916 58.0349 82.6482 58.0602 82.7034 58.0718C82.7592 58.0829 82.8449 58.0906 82.9597 58.0949C82.9919 58.118 83.0082 58.1579 83.009 58.214C83.0103 58.2706 82.994 58.31 82.9597 58.3328C82.5886 58.3238 82.2372 58.3195 81.9046 58.3195C81.5604 58.3195 81.2034 58.3238 80.8323 58.3328C80.8006 58.31 80.7852 58.2698 80.7852 58.2123C80.7852 58.1545 80.8006 58.1155 80.8323 58.0949C80.9476 58.0906 81.0337 58.0829 81.0899 58.0718C81.1469 58.0602 81.2039 58.0349 81.2613 57.9955C81.3192 57.956 81.3582 57.8939 81.3787 57.8082C81.3989 57.7233 81.4092 57.6115 81.4092 57.4709V54.6852Z" fill="black"/>
<path d="M86.6687 57.491C86.6687 57.713 86.7162 57.86 86.811 57.9324C86.9061 58.0048 87.0814 58.0412 87.3372 58.0412C87.4795 58.0412 87.6214 58.0112 87.7632 57.9508C87.9042 57.8908 88.0414 57.7982 88.1734 57.6727C88.3058 57.5475 88.4138 57.3697 88.4974 57.14C88.581 56.9102 88.623 56.6454 88.623 56.3445C88.623 56.1045 88.6144 55.892 88.5977 55.7064C88.5809 55.5208 88.5407 55.3241 88.4785 55.1162C88.4164 54.908 88.3332 54.7352 88.2295 54.5985C88.125 54.4618 87.9771 54.3478 87.7851 54.2574C87.5922 54.1674 87.3642 54.122 87.0998 54.122C86.8127 54.122 86.6687 54.296 86.6687 54.6444V56.0488C86.9241 56.0445 87.165 56.0368 87.3917 56.0252L87.3235 56.375C87.2897 56.3724 87.255 56.3702 87.2198 56.3681C87.1851 56.366 87.1495 56.3642 87.1148 56.363C87.0797 56.3617 87.0437 56.3608 87.0064 56.3595C86.9691 56.3587 86.9314 56.357 86.8941 56.3561C86.8568 56.3548 86.82 56.354 86.7822 56.3527C86.745 56.3518 86.7072 56.3514 86.6687 56.3514V57.491ZM86.1904 58.3194L85.1181 58.3327C85.0864 58.31 85.0705 58.2697 85.0705 58.2122C85.0705 58.1544 85.0864 58.1154 85.1181 58.0948C85.2334 58.0905 85.3191 58.0828 85.3757 58.0717C85.4327 58.0601 85.4892 58.0348 85.5475 57.995C85.6049 57.9551 85.6439 57.893 85.6641 57.8081C85.6842 57.7232 85.695 57.611 85.695 57.4708V56.3514C85.4661 56.3557 85.2424 56.3634 85.0229 56.375L85.0907 56.0252C85.1858 56.03 85.2844 56.0347 85.3859 56.039C85.4879 56.0437 85.5904 56.0467 85.695 56.0488V54.6851C85.695 54.5471 85.6842 54.4352 85.6641 54.3491C85.6439 54.263 85.6049 54.2004 85.5475 54.161C85.4892 54.1215 85.4331 54.0962 85.3778 54.0842C85.3225 54.0735 85.2355 54.0654 85.1181 54.0607C85.0864 54.038 85.0705 53.9977 85.0705 53.9385C85.0705 53.8798 85.0864 53.8408 85.1181 53.8232C85.6448 53.8322 86.0027 53.837 86.1904 53.837C86.2739 53.837 86.4184 53.8357 86.6245 53.8335C86.8302 53.831 86.9978 53.8301 87.1264 53.8301C87.9454 53.8301 88.5745 54.0504 89.0134 54.4901C89.4518 54.9302 89.6717 55.4904 89.6717 56.171C89.6717 56.5198 89.6207 56.8331 89.5187 57.1112C89.4171 57.3894 89.28 57.6024 89.1081 57.7494C88.6624 58.1381 88.0654 58.3327 87.3167 58.3327C87.2241 58.3327 87.036 58.3305 86.7535 58.3258C86.4707 58.3215 86.2829 58.3194 86.1904 58.3194Z" fill="black"/>
<path d="M90.795 54.6851C90.795 54.5471 90.7847 54.4348 90.7646 54.3491C90.744 54.263 90.705 54.2004 90.6472 54.161C90.5897 54.1215 90.5332 54.0962 90.4774 54.0842C90.4222 54.0735 90.3356 54.0654 90.2182 54.0607C90.1865 54.038 90.1702 53.9977 90.1702 53.9385C90.1702 53.8798 90.1865 53.8417 90.2182 53.8232C90.5889 53.8322 90.9463 53.837 91.2904 53.837C91.623 53.837 91.9744 53.8322 92.3452 53.8232C92.3769 53.8417 92.3932 53.879 92.3949 53.9368C92.3957 53.9947 92.3794 54.0358 92.3452 54.0607C92.2303 54.0654 92.1446 54.0735 92.0893 54.0842C92.034 54.0962 91.9774 54.1215 91.9196 54.161C91.8622 54.2004 91.8219 54.2625 91.8009 54.3474C91.7794 54.4322 91.7687 54.545 91.7687 54.6851V57.4704C91.7687 57.6092 91.7794 57.7207 91.8009 57.8068C91.8219 57.893 91.8622 57.956 91.9196 57.9954C91.9774 58.0348 92.034 58.0601 92.0893 58.0712C92.1446 58.0828 92.2303 58.0905 92.3452 58.0948C92.3769 58.118 92.3932 58.1574 92.3949 58.214C92.3957 58.2705 92.3794 58.31 92.3452 58.3327C91.9744 58.3237 91.623 58.319 91.2904 58.319C90.9463 58.319 90.5889 58.3237 90.2182 58.3327C90.1865 58.31 90.1702 58.2697 90.1702 58.2122C90.1702 58.1544 90.1865 58.1154 90.2182 58.0948C90.3335 58.0905 90.4196 58.0828 90.4757 58.0712C90.5323 58.0601 90.5897 58.0348 90.6472 57.9954C90.705 57.956 90.744 57.8934 90.7646 57.8081C90.7847 57.7232 90.795 57.611 90.795 57.4704V54.6851Z" fill="black"/>
<path d="M94.1776 59.2152C94.1776 59.0999 94.2205 58.9988 94.3062 58.9135C94.3923 58.8269 94.5123 58.7845 94.6662 58.7845C94.7995 58.7845 94.9079 58.8316 94.9919 58.9264C95.0755 59.0215 95.1171 59.1269 95.1171 59.2422C95.1171 59.3438 95.0712 59.4415 94.9786 59.5341C94.8852 59.6266 94.7669 59.6734 94.6221 59.6734C94.4888 59.6734 94.3812 59.6266 94.2998 59.5341C94.2183 59.4415 94.1776 59.3348 94.1776 59.2152ZM95.7081 53.2872C95.7081 53.3755 95.6703 53.4355 95.5958 53.4672C95.1976 53.3476 94.9105 53.2182 94.7339 53.0802C94.5261 53.2341 94.2411 53.3631 93.8789 53.4672C93.8129 53.4398 93.7803 53.3781 93.7803 53.2804C94.0769 53.0905 94.3722 52.8496 94.6662 52.5578L94.7609 52.5239C95.0485 52.8111 95.3639 53.0656 95.7081 53.2872ZM94.7609 55.7815C95.0009 55.7815 95.1646 55.7532 95.2516 55.6979C95.3386 55.6426 95.3866 55.5222 95.3961 55.3366C95.4188 55.3139 95.4693 55.3028 95.5482 55.3028C95.6279 55.3028 95.6763 55.3139 95.6943 55.3366C95.6853 55.6148 95.6811 55.8149 95.6811 55.9375C95.6811 56.0211 95.6853 56.2246 95.6943 56.5482C95.6763 56.5705 95.6279 56.5816 95.5482 56.5816C95.4693 56.5816 95.4188 56.5705 95.3961 56.5482C95.3866 56.3854 95.3369 56.2705 95.2465 56.2032C95.1556 56.1372 94.9941 56.1034 94.7609 56.1034H94.1982V57.6946C94.1982 57.7881 94.2261 57.8665 94.2826 57.9308C94.3396 57.9955 94.4056 58.0272 94.4828 58.0272H95.1852C95.6716 58.0272 95.9986 57.7311 96.1658 57.1384C96.2858 57.1114 96.3899 57.1229 96.4782 57.1722C96.4692 57.2425 96.4546 57.3621 96.4341 57.5301C96.4135 57.6989 96.3912 57.8494 96.3681 57.9818C96.3445 58.1142 96.3188 58.2312 96.2913 58.3328C95.8756 58.3238 95.5551 58.3191 95.3309 58.3191H93.6993C93.2082 58.3238 92.8486 58.3285 92.6202 58.3328C92.6022 58.3148 92.5928 58.2758 92.5928 58.2158C92.5928 58.1558 92.6022 58.1155 92.6202 58.0949C92.8803 58.0868 93.0462 58.0486 93.1191 57.9818C93.1915 57.9149 93.2275 57.7448 93.2275 57.4705V54.6921C93.2275 54.4139 93.1915 54.2416 93.1191 54.1748C93.0462 54.1079 92.8803 54.0698 92.6202 54.0608C92.6022 54.0381 92.5928 53.9986 92.5928 53.9425C92.5928 53.8855 92.6022 53.8461 92.6202 53.8234L93.6925 53.8371H95.7415C95.8619 53.8371 95.9751 53.8281 96.0809 53.8096C96.0993 53.8096 96.1092 53.8165 96.1113 53.8302C96.1161 53.8439 96.1229 53.9146 96.1319 54.0419C96.1409 54.1701 96.1512 54.3149 96.1628 54.4765C96.1735 54.6385 96.1842 54.7585 96.1932 54.8382C96.1092 54.8789 96.0098 54.8896 95.8945 54.8721C95.8105 54.6025 95.7132 54.4118 95.6026 54.2986C95.4916 54.1851 95.3155 54.1289 95.0733 54.1289H94.4828C94.4039 54.1289 94.3362 54.1632 94.2809 54.2322C94.2256 54.3012 94.1982 54.3796 94.1982 54.4684V55.7815H94.7609Z" fill="black"/>
<path d="M101.131 58.3194C101.015 58.3755 100.869 58.4042 100.693 58.4042C100.597 58.3155 100.505 58.2131 100.415 58.0948L98.0866 55.3297C98.0095 55.2367 97.9542 55.1904 97.9207 55.1904C97.8843 55.1904 97.8663 55.2367 97.8663 55.3297V57.3962C97.8663 57.6084 97.8856 57.7614 97.9259 57.8544C97.9653 57.9474 98.0193 58.0057 98.0883 58.0305C98.1573 58.0554 98.2846 58.0768 98.4702 58.0948C98.4882 58.1132 98.4972 58.1527 98.4972 58.214C98.4972 58.2752 98.4882 58.3147 98.4702 58.3327C98.0065 58.3237 97.7472 58.3194 97.6927 58.3194C97.6276 58.3194 97.3675 58.3237 96.9127 58.3327C96.8947 58.3147 96.8857 58.2757 96.8857 58.2157C96.8857 58.1557 96.8947 58.1154 96.9127 58.0948C97.0979 58.0768 97.226 58.0541 97.2963 58.0275C97.3662 58.0001 97.4206 57.9401 97.4592 57.8471C97.4973 57.7545 97.5166 57.6041 97.5166 57.3962V54.4987C97.4939 54.3971 97.4317 54.3007 97.3297 54.2098C97.2282 54.1198 97.1082 54.0697 96.9706 54.0607C96.9522 54.038 96.9427 53.9985 96.9415 53.9424C96.9406 53.8854 96.95 53.846 96.9706 53.8232L98.1003 53.837L98.7209 54.566L100.564 56.7375C100.616 56.7988 100.658 56.831 100.691 56.8331C100.724 56.8348 100.743 56.7954 100.75 56.7144V54.7601C100.75 54.5471 100.73 54.3941 100.691 54.3015C100.652 54.209 100.596 54.1502 100.526 54.125C100.456 54.1001 100.328 54.0787 100.143 54.0607C100.121 54.038 100.109 53.9985 100.109 53.9424C100.109 53.8854 100.121 53.846 100.143 53.8232C100.607 53.8322 100.876 53.837 100.95 53.837C100.996 53.837 101.246 53.8322 101.7 53.8232C101.723 53.846 101.735 53.8845 101.735 53.9402C101.735 53.996 101.723 54.0358 101.7 54.0607C101.515 54.0787 101.388 54.1014 101.319 54.1288C101.25 54.1554 101.195 54.2158 101.156 54.3084C101.116 54.401 101.096 54.5518 101.096 54.7601V57.6101L101.131 58.3194Z" fill="black"/>
<path d="M106.438 57.4641C106.438 57.7427 106.477 57.915 106.556 57.9819C106.636 58.0487 106.821 58.086 107.113 58.095C107.131 58.1134 107.14 58.1529 107.14 58.2141C107.14 58.2754 107.131 58.3149 107.113 58.3329C106.649 58.3239 106.258 58.3196 105.938 58.3196C105.628 58.3196 105.247 58.3239 104.792 58.3329C104.774 58.3149 104.764 58.2759 104.764 58.2159C104.764 58.1554 104.774 58.1156 104.792 58.095C105.084 58.086 105.269 58.0487 105.348 57.9819C105.427 57.915 105.467 57.7427 105.467 57.4641V54.804C105.467 54.5777 105.442 54.4067 105.394 54.2901C105.346 54.1731 105.26 54.1153 105.138 54.1153H104.799C104.563 54.1153 104.375 54.1706 104.233 54.2816C104.092 54.3921 103.986 54.5824 103.917 54.8511C103.796 54.8511 103.706 54.8404 103.645 54.8177C103.738 54.4196 103.795 54.0814 103.818 53.8029C103.818 53.7896 103.828 53.7827 103.849 53.7827C104.317 53.8191 104.856 53.8371 105.467 53.8371H106.444C107.06 53.8371 107.579 53.8191 108.002 53.7827C108.015 53.7827 108.022 53.7896 108.022 53.8029C108.027 54.1131 108.057 54.444 108.114 54.7971C108.062 54.8199 107.971 54.8314 107.842 54.8314C107.786 54.5709 107.683 54.3866 107.535 54.2781C107.387 54.1693 107.179 54.1153 106.913 54.1153H106.76C106.64 54.1153 106.556 54.174 106.509 54.2919C106.461 54.4093 106.438 54.5867 106.438 54.8246V57.4641Z" fill="black"/>
<path d="M111.381 52.9007C111.381 53.007 111.306 53.109 111.154 53.2058C110.996 53.3121 110.914 53.4257 110.909 53.5453H110.73C110.73 53.3781 110.787 53.241 110.902 53.1347C110.982 53.0554 111.021 52.9843 111.021 52.9208C111.021 52.758 110.938 52.6765 110.77 52.6765C110.709 52.6765 110.662 52.6868 110.628 52.707C110.594 52.7271 110.577 52.7494 110.577 52.773C110.577 52.797 110.584 52.8158 110.598 52.8291C110.625 52.8694 110.638 52.905 110.638 52.9345C110.638 52.9748 110.621 53.0095 110.586 53.0378C110.55 53.0661 110.506 53.0803 110.451 53.0803C110.327 53.0803 110.265 53.0181 110.265 52.8938C110.265 52.8051 110.316 52.7194 110.421 52.6358C110.525 52.5523 110.663 52.5103 110.835 52.5103C111.03 52.5103 111.169 52.5544 111.254 52.6427C111.339 52.731 111.381 52.8167 111.381 52.9007ZM112.711 54.0608C112.517 54.0608 112.419 54.1628 112.419 54.3664V56.2834C112.419 56.616 112.394 56.9018 112.343 57.1401C112.293 57.3788 112.206 57.5978 112.084 57.7967C111.962 57.996 111.782 58.1468 111.546 58.2497C111.309 58.353 111.017 58.4044 110.669 58.4044C110.53 58.4044 110.387 58.3911 110.236 58.365C110.086 58.3393 109.92 58.2865 109.739 58.2073C109.558 58.1284 109.398 58.0285 109.259 57.9085C109.119 57.789 109.004 57.624 108.911 57.4131C108.819 57.2031 108.771 56.9631 108.771 56.694V54.3664C108.771 54.2601 108.743 54.1825 108.685 54.1341C108.628 54.0853 108.532 54.0608 108.399 54.0608H108.208C108.172 54.0608 108.154 54.042 108.154 54.003V53.8371L108.168 53.8303C108.663 53.835 109.001 53.8371 109.182 53.8371L110.224 53.8303L110.238 53.8371V54.003C110.238 54.0394 110.22 54.0587 110.183 54.0608H110.004C109.748 54.0608 109.62 54.1628 109.62 54.3664V56.4634C109.62 56.6575 109.625 56.8118 109.634 56.9263C109.643 57.0407 109.677 57.1753 109.735 57.3304C109.794 57.4855 109.881 57.6205 109.997 57.7358C110.227 57.9664 110.502 58.0821 110.821 58.0821C110.979 58.0821 111.12 58.065 111.244 58.0307C111.367 57.9973 111.468 57.9544 111.546 57.9038C111.624 57.8528 111.691 57.78 111.746 57.6848C111.801 57.5897 111.842 57.5061 111.868 57.4337C111.894 57.3612 111.914 57.258 111.927 57.1234C111.941 56.9884 111.949 56.883 111.951 56.808C111.954 56.7321 111.955 56.6207 111.955 56.4733V54.3664C111.955 54.2601 111.926 54.1825 111.868 54.1341C111.81 54.0853 111.715 54.0608 111.581 54.0608H111.391C111.355 54.0608 111.337 54.042 111.337 54.003V53.8371L111.351 53.8303C111.726 53.835 112.004 53.8371 112.185 53.8371C112.477 53.8371 112.677 53.8243 112.786 53.7994C112.894 53.775 112.949 53.7274 112.949 53.6575C112.949 53.5688 112.878 53.5251 112.735 53.5251C112.624 53.5251 112.542 53.4973 112.488 53.442C112.433 53.3867 112.406 53.319 112.406 53.2401C112.406 53.1561 112.437 53.0897 112.501 53.0413C112.564 52.9928 112.649 52.9688 112.756 52.9688C112.884 52.9688 112.993 53.025 113.081 53.1377C113.169 53.2513 113.214 53.3893 113.214 53.5521C113.214 53.706 113.168 53.829 113.078 53.922C112.987 54.0145 112.865 54.0608 112.711 54.0608Z" fill="black"/>
<path d="M117.516 53.7456C117.835 53.7456 118.176 53.7859 118.539 53.8677C118.902 53.9487 119.135 53.9899 119.236 53.9899C119.288 54.508 119.339 54.8877 119.389 55.1303L119.084 55.1702C118.982 54.8385 118.796 54.5663 118.526 54.3546C118.255 54.1433 117.886 54.0375 117.417 54.0375C116.976 54.0375 116.625 54.2093 116.363 54.5535C116.093 54.9057 115.958 55.4038 115.958 56.0462C115.958 56.2926 115.989 56.5309 116.052 56.7606C116.114 56.9899 116.208 57.208 116.333 57.4133C116.459 57.6195 116.634 57.7845 116.858 57.9087C117.082 58.0335 117.342 58.0952 117.638 58.0952C117.828 58.0952 117.986 58.075 118.112 58.0347C118.237 57.9936 118.357 57.9165 118.473 57.8037V56.7692C118.473 56.6397 118.432 56.5566 118.35 56.5193C118.269 56.4825 118.12 56.4546 117.902 56.4366C117.88 56.4139 117.869 56.3697 117.869 56.3037C117.869 56.2382 117.88 56.1966 117.902 56.1782C118.34 56.1872 118.685 56.1919 118.938 56.1919C119.211 56.1919 119.487 56.1872 119.766 56.1782C119.789 56.1966 119.799 56.2382 119.799 56.3037C119.799 56.3697 119.789 56.4139 119.766 56.4366C119.659 56.4456 119.58 56.4743 119.527 56.5227C119.473 56.5716 119.447 56.6535 119.447 56.7692V57.583C119.447 57.6533 119.484 57.718 119.559 57.7763C119.328 57.9666 119.026 58.1158 118.652 58.2242C118.279 58.333 117.888 58.387 117.479 58.387C116.71 58.387 116.108 58.2122 115.674 57.8612C115.427 57.6628 115.238 57.4133 115.107 57.115C114.975 56.8163 114.91 56.5065 114.91 56.185C114.91 55.4205 115.165 54.8222 115.674 54.3906C116.175 53.9603 116.79 53.7456 117.516 53.7456Z" fill="black"/>
<path d="M120.723 54.6851C120.723 54.5471 120.713 54.4348 120.692 54.3491C120.672 54.263 120.633 54.2004 120.575 54.161C120.517 54.1215 120.461 54.0962 120.405 54.0842C120.35 54.0735 120.263 54.0654 120.146 54.0607C120.114 54.038 120.098 53.9977 120.098 53.9385C120.098 53.8798 120.114 53.8417 120.146 53.8232C120.517 53.8322 120.875 53.837 121.218 53.837C121.551 53.837 121.902 53.8322 122.274 53.8232C122.304 53.8417 122.322 53.879 122.322 53.9368C122.324 53.9947 122.307 54.0358 122.274 54.0607C122.158 54.0654 122.073 54.0735 122.017 54.0842C121.962 54.0962 121.905 54.1215 121.847 54.161C121.79 54.2004 121.75 54.2625 121.729 54.3474C121.707 54.4322 121.697 54.545 121.697 54.6851V57.4704C121.697 57.6092 121.707 57.7207 121.729 57.8068C121.75 57.893 121.79 57.956 121.847 57.9954C121.905 58.0348 121.962 58.0601 122.017 58.0712C122.073 58.0828 122.158 58.0905 122.274 58.0948C122.304 58.118 122.322 58.1574 122.322 58.214C122.324 58.2705 122.307 58.31 122.274 58.3327C121.902 58.3237 121.551 58.319 121.218 58.319C120.875 58.319 120.517 58.3237 120.146 58.3327C120.114 58.31 120.098 58.2697 120.098 58.2122C120.098 58.1544 120.114 58.1154 120.146 58.0948C120.261 58.0905 120.347 58.0828 120.404 58.0712C120.46 58.0601 120.517 58.0348 120.575 57.9954C120.633 57.956 120.672 57.8934 120.692 57.8081C120.713 57.7232 120.723 57.611 120.723 57.4704V54.6851Z" fill="black"/>
<path d="M124.377 56.3518H125.433L124.866 54.706H124.818L124.2 56.26C124.194 56.2737 124.191 56.2858 124.194 56.2973C124.196 56.3085 124.2 56.3175 124.207 56.3243C124.214 56.3312 124.225 56.3368 124.241 56.341C124.257 56.3458 124.276 56.3483 124.297 56.3496C124.319 56.3513 124.345 56.3518 124.377 56.3518ZM123.627 57.7695C123.622 57.8149 123.616 57.8552 123.607 57.8903C123.598 57.9255 123.61 57.9546 123.644 57.9782C123.678 58.0022 123.706 58.021 123.727 58.0348C123.749 58.0485 123.787 58.0596 123.843 58.0686C123.898 58.0772 123.941 58.0832 123.972 58.0853C124.002 58.0879 124.047 58.0909 124.106 58.0952C124.124 58.1136 124.133 58.153 124.133 58.2143C124.133 58.2756 124.124 58.315 124.106 58.333C123.762 58.324 123.454 58.3198 123.183 58.3198C123.09 58.3198 122.871 58.324 122.528 58.333C122.505 58.315 122.494 58.276 122.494 58.216C122.494 58.156 122.505 58.1157 122.528 58.0952C122.648 58.087 122.742 58.0733 122.809 58.0549C122.877 58.0369 122.949 57.9932 123.027 57.9242C123.103 57.8552 123.169 57.7506 123.224 57.6105L124.73 54.0542C124.902 54.0542 125.157 53.9513 125.497 53.7456L126.929 57.7223C126.951 57.7922 126.983 57.8509 127.022 57.8972C127.062 57.9435 127.093 57.9778 127.116 58.0005C127.138 58.0232 127.187 58.0425 127.261 58.0583C127.336 58.0742 127.379 58.0819 127.39 58.0819C127.401 58.0819 127.456 58.087 127.553 58.0952C127.571 58.1136 127.58 58.153 127.58 58.2143C127.58 58.2756 127.571 58.315 127.553 58.333C127.209 58.324 126.9 58.3198 126.623 58.3198C126.173 58.3198 125.776 58.324 125.433 58.333C125.41 58.315 125.398 58.276 125.398 58.216C125.398 58.156 125.41 58.1157 125.433 58.0952C125.459 58.0952 125.496 58.0943 125.541 58.0922C125.586 58.09 125.621 58.0879 125.646 58.0853C125.671 58.0832 125.701 58.081 125.736 58.0785C125.771 58.0763 125.798 58.072 125.816 58.0652C125.834 58.0583 125.855 58.0515 125.878 58.0446C125.902 58.0378 125.92 58.0279 125.931 58.0142C125.943 58.0005 125.952 57.9842 125.958 57.9653C125.965 57.9456 125.967 57.9246 125.965 57.9019C125.963 57.8796 125.957 57.8522 125.948 57.8209L125.558 56.6873H124.238C124.154 56.6873 124.098 56.695 124.068 56.7109C124.039 56.7267 124.014 56.7585 123.993 56.8065L123.627 57.7695Z" fill="black"/>
<path d="M131.123 57.491C131.123 57.713 131.17 57.86 131.265 57.9324C131.36 58.0048 131.535 58.0412 131.791 58.0412C131.934 58.0412 132.076 58.0112 132.217 57.9508C132.358 57.8908 132.495 57.7982 132.627 57.6727C132.76 57.5475 132.868 57.3697 132.952 57.14C133.035 56.9102 133.077 56.6454 133.077 56.3445C133.077 56.1045 133.069 55.892 133.052 55.7064C133.035 55.5208 132.995 55.3241 132.933 55.1162C132.87 54.908 132.788 54.7352 132.684 54.5985C132.58 54.4618 132.432 54.3478 132.239 54.2574C132.047 54.1674 131.818 54.122 131.554 54.122C131.267 54.122 131.123 54.296 131.123 54.6444V56.0488C131.378 56.0445 131.619 56.0368 131.846 56.0252L131.778 56.375C131.743 56.3724 131.709 56.3702 131.674 56.3681C131.639 56.366 131.604 56.3642 131.569 56.363C131.534 56.3617 131.498 56.3608 131.46 56.3595C131.423 56.3587 131.386 56.357 131.348 56.3561C131.311 56.3548 131.274 56.354 131.237 56.3527C131.199 56.3518 131.161 56.3514 131.123 56.3514V57.491ZM130.644 58.3194L129.572 58.3327C129.54 58.31 129.525 58.2697 129.525 58.2122C129.525 58.1544 129.54 58.1154 129.572 58.0948C129.687 58.0905 129.773 58.0828 129.83 58.0717C129.887 58.0601 129.943 58.0348 130.002 57.995C130.059 57.9551 130.098 57.893 130.119 57.8081C130.139 57.7232 130.149 57.611 130.149 57.4708V56.3514C129.92 56.3557 129.696 56.3634 129.477 56.375L129.545 56.0252C129.64 56.03 129.738 56.0347 129.84 56.039C129.942 56.0437 130.044 56.0467 130.149 56.0488V54.6851C130.149 54.5471 130.139 54.4352 130.119 54.3491C130.098 54.263 130.059 54.2004 130.002 54.161C129.943 54.1215 129.887 54.0962 129.832 54.0842C129.777 54.0735 129.69 54.0654 129.572 54.0607C129.54 54.038 129.525 53.9977 129.525 53.9385C129.525 53.8798 129.54 53.8408 129.572 53.8232C130.099 53.8322 130.457 53.837 130.644 53.837C130.728 53.837 130.873 53.8357 131.079 53.8335C131.284 53.831 131.452 53.8301 131.58 53.8301C132.399 53.8301 133.029 54.0504 133.467 54.4901C133.906 54.9302 134.126 55.4904 134.126 56.171C134.126 56.5198 134.075 56.8331 133.973 57.1112C133.871 57.3894 133.734 57.6024 133.563 57.7494C133.116 58.1381 132.519 58.3327 131.771 58.3327C131.678 58.3327 131.49 58.3305 131.208 58.3258C130.925 58.3215 130.737 58.3194 130.644 58.3194Z" fill="black"/>
<path d="M135.368 52.5508C135.747 52.8156 136.041 53.0389 136.25 53.2198C136.297 53.2558 136.321 53.3046 136.321 53.3655C136.321 53.3929 136.305 53.4165 136.275 53.4366C136.244 53.4572 136.214 53.4671 136.182 53.4671C136.094 53.4671 136.012 53.4516 135.938 53.4199L134.937 53.0162L134.916 52.9344C135.013 52.7758 135.164 52.6485 135.368 52.5508ZM135.249 54.6855C135.249 54.5475 135.238 54.4356 135.218 54.3495C135.198 54.2634 135.159 54.2008 135.101 54.1614C135.043 54.1219 134.987 54.0966 134.931 54.0846C134.876 54.0739 134.79 54.0658 134.672 54.0611C134.64 54.0384 134.625 53.9981 134.625 53.9389C134.625 53.8802 134.64 53.8421 134.672 53.8236C135.043 53.8326 135.4 53.8374 135.744 53.8374C136.077 53.8374 136.428 53.8326 136.799 53.8236C136.831 53.8421 136.847 53.8798 136.849 53.9372C136.85 53.9951 136.833 54.0362 136.799 54.0611C136.684 54.0658 136.599 54.0739 136.543 54.0846C136.488 54.0966 136.431 54.1219 136.374 54.1614C136.316 54.2008 136.276 54.2629 136.255 54.3478C136.233 54.4326 136.222 54.5454 136.222 54.6855V57.4712C136.222 57.6096 136.233 57.7211 136.255 57.8072C136.276 57.8934 136.316 57.9564 136.374 57.9958C136.431 58.0352 136.488 58.0605 136.543 58.0721C136.599 58.0832 136.684 58.0909 136.799 58.0952C136.831 58.1184 136.847 58.1578 136.849 58.2144C136.85 58.2709 136.833 58.3104 136.799 58.3331C136.428 58.3241 136.077 58.3198 135.744 58.3198C135.4 58.3198 135.043 58.3241 134.672 58.3331C134.64 58.3104 134.625 58.2701 134.625 58.2126C134.625 58.1548 134.64 58.1158 134.672 58.0952C134.787 58.0909 134.873 58.0832 134.93 58.0721C134.986 58.0605 135.043 58.0352 135.101 57.9958C135.159 57.9564 135.198 57.8938 135.218 57.8085C135.238 57.7236 135.249 57.6114 135.249 57.4712V54.6855Z" fill="black"/>
<path d="M141.39 58.3194C141.275 58.3755 141.129 58.4042 140.952 58.4042C140.858 58.3155 140.765 58.2131 140.674 58.0948L138.347 55.3297C138.27 55.2367 138.214 55.1904 138.18 55.1904C138.144 55.1904 138.126 55.2367 138.126 55.3297V57.3962C138.126 57.6084 138.146 57.7614 138.186 57.8544C138.225 57.9474 138.279 58.0057 138.348 58.0305C138.417 58.0554 138.544 58.0768 138.73 58.0948C138.748 58.1132 138.757 58.1527 138.757 58.214C138.757 58.2752 138.748 58.3147 138.73 58.3327C138.266 58.3237 138.007 58.3194 137.953 58.3194C137.887 58.3194 137.628 58.3237 137.173 58.3327C137.155 58.3147 137.146 58.2757 137.146 58.2157C137.146 58.1557 137.155 58.1154 137.173 58.0948C137.359 58.0768 137.486 58.0541 137.556 58.0275C137.626 58.0001 137.68 57.9401 137.719 57.8471C137.757 57.7545 137.777 57.6041 137.777 57.3962V54.4987C137.754 54.3971 137.692 54.3007 137.59 54.2098C137.488 54.1198 137.368 54.0697 137.23 54.0607C137.212 54.038 137.203 53.9985 137.202 53.9424C137.2 53.8854 137.21 53.846 137.23 53.8232L138.361 53.837L138.981 54.566L140.824 56.7375C140.875 56.7988 140.918 56.831 140.951 56.8331C140.983 56.8348 141.003 56.7954 141.01 56.7144V54.7601C141.01 54.5471 140.99 54.3941 140.951 54.3015C140.911 54.209 140.857 54.1502 140.787 54.125C140.716 54.1001 140.588 54.0787 140.403 54.0607C140.38 54.038 140.369 53.9985 140.369 53.9424C140.369 53.8854 140.38 53.846 140.403 53.8232C140.867 53.8322 141.136 53.837 141.21 53.837C141.256 53.837 141.506 53.8322 141.96 53.8232C141.983 53.846 141.994 53.8845 141.994 53.9402C141.994 53.996 141.983 54.0358 141.96 54.0607C141.775 54.0787 141.648 54.1014 141.579 54.1288C141.51 54.1554 141.456 54.2158 141.416 54.3084C141.376 54.401 141.357 54.5518 141.357 54.7601V57.6101L141.39 58.3194Z" fill="black"/>
<path d="M146.066 54.6851C146.066 54.5471 146.056 54.4348 146.036 54.3491C146.015 54.263 145.976 54.2004 145.917 54.161C145.858 54.1215 145.801 54.0962 145.745 54.0842C145.69 54.0735 145.604 54.0654 145.489 54.0607C145.457 54.038 145.442 53.9977 145.442 53.9385C145.442 53.8798 145.457 53.8417 145.489 53.8232C145.86 53.8322 146.216 53.837 146.558 53.837C146.891 53.837 147.243 53.8322 147.617 53.8232C147.649 53.8417 147.664 53.879 147.664 53.9368C147.664 53.9947 147.649 54.0358 147.617 54.0607C147.502 54.0654 147.416 54.0735 147.359 54.0842C147.302 54.0962 147.245 54.1215 147.188 54.161C147.13 54.2004 147.091 54.2625 147.071 54.3474C147.05 54.4322 147.04 54.545 147.04 54.6851V57.4704C147.04 57.6092 147.05 57.7207 147.071 57.8068C147.091 57.893 147.13 57.956 147.188 57.9954C147.245 58.0348 147.302 58.0601 147.359 58.0712C147.416 58.0828 147.502 58.0905 147.617 58.0948C147.649 58.1132 147.664 58.1527 147.664 58.214C147.664 58.2752 147.649 58.3147 147.617 58.3327C147.246 58.3237 146.893 58.319 146.558 58.319C146.214 58.319 145.858 58.3237 145.489 58.3327C145.457 58.31 145.442 58.271 145.442 58.2157C145.442 58.1604 145.457 58.1201 145.489 58.0948C145.604 58.0905 145.69 58.0828 145.745 58.0712C145.801 58.0601 145.858 58.0348 145.917 57.9954C145.976 57.956 146.015 57.8934 146.036 57.8081C146.056 57.7232 146.066 57.611 146.066 57.4704V56.1032H143.912V57.4704C143.912 57.6092 143.922 57.7207 143.944 57.8068C143.965 57.893 144.005 57.956 144.062 57.9954C144.12 58.0348 144.176 58.0601 144.232 58.0712C144.287 58.0828 144.373 58.0905 144.488 58.0948C144.52 58.118 144.536 58.1574 144.538 58.214C144.539 58.2705 144.522 58.31 144.488 58.3327C144.117 58.3237 143.765 58.319 143.433 58.319C143.089 58.319 142.732 58.3237 142.361 58.3327C142.329 58.31 142.313 58.2697 142.313 58.2122C142.313 58.1544 142.329 58.1154 142.361 58.0948C142.476 58.0905 142.562 58.0828 142.619 58.0712C142.675 58.0601 142.732 58.0348 142.79 57.9954C142.848 57.956 142.887 57.8934 142.907 57.8081C142.927 57.7232 142.938 57.611 142.938 57.4704V54.6851C142.938 54.5471 142.927 54.4348 142.907 54.3491C142.887 54.263 142.848 54.2004 142.79 54.161C142.732 54.1215 142.676 54.0962 142.62 54.0842C142.565 54.0735 142.478 54.0654 142.361 54.0607C142.329 54.038 142.313 53.9977 142.313 53.9385C142.313 53.8798 142.329 53.8417 142.361 53.8232C142.732 53.8322 143.089 53.837 143.433 53.837C143.765 53.837 144.117 53.8322 144.488 53.8232C144.52 53.8417 144.536 53.879 144.538 53.9368C144.539 53.9947 144.522 54.0358 144.488 54.0607C144.373 54.0654 144.287 54.0735 144.232 54.0842C144.176 54.0962 144.12 54.1215 144.062 54.161C144.005 54.2004 143.965 54.2625 143.944 54.3474C143.922 54.4322 143.912 54.545 143.912 54.6851V55.7672H146.066V54.6851Z" fill="black"/>
<path d="M152.208 58.2414C152.167 58.3494 152.089 58.4042 151.974 58.4042C151.861 58.4017 151.784 58.3472 151.743 58.2414L150.23 54.434C150.187 54.332 150.129 54.2535 150.058 54.1982C149.987 54.143 149.922 54.1095 149.863 54.098C149.804 54.0872 149.718 54.0744 149.602 54.0607C149.584 54.0358 149.574 53.996 149.574 53.9402C149.574 53.8845 149.584 53.846 149.602 53.8232C149.946 53.8322 150.257 53.837 150.535 53.837C151.006 53.837 151.413 53.8322 151.757 53.8232C151.775 53.846 151.784 53.8854 151.784 53.9424C151.784 53.9985 151.775 54.038 151.757 54.0607C151.659 54.0654 151.582 54.0722 151.524 54.0812C151.466 54.0902 151.409 54.104 151.351 54.122C151.293 54.14 151.257 54.1661 151.241 54.2C151.225 54.2334 151.226 54.2788 151.245 54.3358L152.106 56.8194L152.211 57.1318L152.327 56.8597L153.287 54.3864C153.319 54.3032 153.309 54.2368 153.258 54.1884C153.207 54.1391 153.147 54.1082 153.077 54.0945C153.006 54.0812 152.916 54.0697 152.805 54.0607C152.782 54.0358 152.771 53.996 152.771 53.9402C152.771 53.8845 152.782 53.846 152.805 53.8232C153.149 53.8322 153.457 53.837 153.732 53.837C153.822 53.837 154.039 53.8322 154.383 53.8232C154.403 53.846 154.413 53.8854 154.412 53.9424C154.411 53.9985 154.401 54.038 154.383 54.0607C154.202 54.0744 154.061 54.1112 153.961 54.1708C153.86 54.2308 153.77 54.356 153.691 54.5462L152.208 58.2414Z" fill="black"/>
<path d="M155.214 54.6851C155.214 54.5471 155.204 54.4348 155.184 54.3491C155.163 54.263 155.124 54.2004 155.067 54.161C155.009 54.1215 154.952 54.0962 154.897 54.0842C154.842 54.0735 154.755 54.0654 154.637 54.0607C154.605 54.038 154.59 53.9977 154.59 53.9385C154.59 53.8798 154.605 53.8417 154.637 53.8232C155.008 53.8322 155.366 53.837 155.709 53.837C156.042 53.837 156.394 53.8322 156.765 53.8232C156.797 53.8417 156.813 53.879 156.814 53.9368C156.815 53.9947 156.799 54.0358 156.765 54.0607C156.65 54.0654 156.564 54.0735 156.509 54.0842C156.453 54.0962 156.396 54.1215 156.339 54.161C156.281 54.2004 156.242 54.2625 156.22 54.3474C156.199 54.4322 156.188 54.545 156.188 54.6851V57.4704C156.188 57.6092 156.199 57.7207 156.22 57.8068C156.242 57.893 156.281 57.956 156.339 57.9954C156.396 58.0348 156.453 58.0601 156.509 58.0712C156.564 58.0828 156.65 58.0905 156.765 58.0948C156.797 58.118 156.813 58.1574 156.814 58.214C156.815 58.2705 156.799 58.31 156.765 58.3327C156.394 58.3237 156.042 58.319 155.709 58.319C155.366 58.319 155.008 58.3237 154.637 58.3327C154.605 58.31 154.59 58.2697 154.59 58.2122C154.59 58.1544 154.605 58.1154 154.637 58.0948C154.752 58.0905 154.839 58.0828 154.896 58.0712C154.952 58.0601 155.009 58.0348 155.067 57.9954C155.124 57.956 155.163 57.8934 155.184 57.8081C155.204 57.7232 155.214 57.611 155.214 57.4704V54.6851Z" fill="black"/>
<path d="M158.597 59.2152C158.597 59.0999 158.64 58.9988 158.726 58.9135C158.812 58.8269 158.932 58.7845 159.086 58.7845C159.219 58.7845 159.328 58.8316 159.411 58.9264C159.495 59.0215 159.537 59.1269 159.537 59.2422C159.537 59.3438 159.491 59.4415 159.398 59.5341C159.305 59.6266 159.186 59.6734 159.042 59.6734C158.909 59.6734 158.801 59.6266 158.719 59.5341C158.638 59.4415 158.597 59.3348 158.597 59.2152ZM160.128 53.2872C160.128 53.3755 160.09 53.4355 160.016 53.4672C159.617 53.3476 159.33 53.2182 159.153 53.0802C158.946 53.2341 158.661 53.3631 158.298 53.4672C158.233 53.4398 158.2 53.3781 158.2 53.2804C158.496 53.0905 158.792 52.8496 159.086 52.5578L159.181 52.5239C159.468 52.8111 159.784 53.0656 160.128 53.2872ZM159.181 55.7815C159.421 55.7815 159.584 55.7532 159.671 55.6979C159.758 55.6426 159.807 55.5222 159.815 55.3366C159.838 55.3139 159.888 55.3028 159.968 55.3028C160.047 55.3028 160.096 55.3139 160.114 55.3366C160.105 55.6148 160.101 55.8149 160.101 55.9375C160.101 56.0211 160.105 56.2246 160.114 56.5482C160.096 56.5705 160.047 56.5816 159.968 56.5816C159.888 56.5816 159.838 56.5705 159.815 56.5482C159.807 56.3854 159.756 56.2705 159.666 56.2032C159.576 56.1372 159.414 56.1034 159.181 56.1034H158.618V57.6946C158.618 57.7881 158.646 57.8665 158.703 57.9308C158.759 57.9955 158.826 58.0272 158.903 58.0272H159.605C160.092 58.0272 160.418 57.7311 160.586 57.1384C160.705 57.1114 160.81 57.1229 160.898 57.1722C160.889 57.2425 160.874 57.3621 160.854 57.5301C160.833 57.6989 160.811 57.8494 160.788 57.9818C160.764 58.1142 160.739 58.2312 160.711 58.3328C160.295 58.3238 159.975 58.3191 159.751 58.3191H158.118C157.628 58.3238 157.268 58.3285 157.039 58.3328C157.022 58.3148 157.013 58.2758 157.013 58.2158C157.013 58.1558 157.022 58.1155 157.039 58.0949C157.3 58.0868 157.466 58.0486 157.539 57.9818C157.611 57.9149 157.647 57.7448 157.647 57.4705V54.6921C157.647 54.4139 157.611 54.2416 157.539 54.1748C157.466 54.1079 157.3 54.0698 157.039 54.0608C157.022 54.0381 157.013 53.9986 157.013 53.9425C157.013 53.8855 157.022 53.8461 157.039 53.8234L158.112 53.8371H160.161C160.281 53.8371 160.395 53.8281 160.501 53.8096C160.519 53.8096 160.529 53.8165 160.531 53.8302C160.536 53.8439 160.542 53.9146 160.551 54.0419C160.561 54.1701 160.571 54.3149 160.582 54.4765C160.593 54.6385 160.604 54.7585 160.613 54.8382C160.529 54.8789 160.43 54.8896 160.314 54.8721C160.23 54.6025 160.133 54.4118 160.023 54.2986C159.911 54.1851 159.735 54.1289 159.493 54.1289H158.903C158.823 54.1289 158.756 54.1632 158.701 54.2322C158.645 54.3012 158.618 54.3796 158.618 54.4684V55.7815H159.181Z" fill="black"/>
<path d="M163.979 57.4641C163.979 57.7427 164.019 57.915 164.098 57.9819C164.177 58.0487 164.362 58.086 164.654 58.095C164.672 58.1134 164.682 58.1529 164.682 58.2141C164.682 58.2754 164.672 58.3149 164.654 58.3329C164.19 58.3239 163.799 58.3196 163.48 58.3196C163.17 58.3196 162.788 58.3239 162.333 58.3329C162.315 58.3149 162.306 58.2759 162.306 58.2159C162.306 58.1554 162.315 58.1156 162.333 58.095C162.625 58.086 162.81 58.0487 162.89 57.9819C162.969 57.915 163.008 57.7427 163.008 57.4641V54.804C163.008 54.5777 162.984 54.4067 162.935 54.2901C162.887 54.1731 162.801 54.1153 162.679 54.1153H162.34C162.105 54.1153 161.916 54.1706 161.775 54.2816C161.633 54.3921 161.528 54.5824 161.458 54.8511C161.337 54.8511 161.247 54.8404 161.187 54.8177C161.279 54.4196 161.337 54.0814 161.359 53.8029C161.359 53.7896 161.369 53.7827 161.39 53.7827C161.858 53.8191 162.398 53.8371 163.008 53.8371H163.986C164.601 53.8371 165.12 53.8191 165.543 53.7827C165.557 53.7827 165.564 53.7896 165.564 53.8029C165.568 54.1131 165.598 54.444 165.655 54.7971C165.603 54.8199 165.513 54.8314 165.383 54.8314C165.327 54.5709 165.225 54.3866 165.077 54.2781C164.928 54.1693 164.721 54.1153 164.454 54.1153H164.301C164.181 54.1153 164.098 54.174 164.05 54.2919C164.003 54.4093 163.979 54.5867 163.979 54.8246V57.4641Z" fill="black"/>
<path d="M171.817 58.3194C171.702 58.3755 171.556 58.4042 171.379 58.4042C171.285 58.3155 171.192 58.2131 171.101 58.0948L168.774 55.3297C168.697 55.2367 168.641 55.1904 168.607 55.1904C168.571 55.1904 168.553 55.2367 168.553 55.3297V57.3962C168.553 57.6084 168.573 57.7614 168.612 57.8544C168.652 57.9474 168.706 58.0057 168.775 58.0305C168.844 58.0554 168.971 58.0768 169.157 58.0948C169.175 58.1132 169.184 58.1527 169.184 58.214C169.184 58.2752 169.175 58.3147 169.157 58.3327C168.693 58.3237 168.434 58.3194 168.38 58.3194C168.314 58.3194 168.054 58.3237 167.599 58.3327C167.581 58.3147 167.572 58.2757 167.572 58.2157C167.572 58.1557 167.581 58.1154 167.599 58.0948C167.784 58.0768 167.913 58.0541 167.983 58.0275C168.053 58.0001 168.107 57.9401 168.146 57.8471C168.184 57.7545 168.204 57.6041 168.204 57.3962V54.4987C168.181 54.3971 168.119 54.3007 168.016 54.2098C167.915 54.1198 167.795 54.0697 167.657 54.0607C167.639 54.038 167.629 53.9985 167.628 53.9424C167.627 53.8854 167.637 53.846 167.657 53.8232L168.787 53.837L169.408 54.566L171.251 56.7375C171.303 56.7988 171.345 56.831 171.378 56.8331C171.411 56.8348 171.43 56.7954 171.437 56.7144V54.7601C171.437 54.5471 171.417 54.3941 171.378 54.3015C171.338 54.209 171.283 54.1502 171.213 54.125C171.143 54.1001 171.015 54.0787 170.83 54.0607C170.807 54.038 170.796 53.9985 170.796 53.9424C170.796 53.8854 170.807 53.846 170.83 53.8232C171.294 53.8322 171.563 53.837 171.637 53.837C171.683 53.837 171.933 53.8322 172.387 53.8232C172.41 53.846 172.421 53.8845 172.421 53.9402C172.421 53.996 172.41 54.0358 172.387 54.0607C172.202 54.0787 172.074 54.1014 172.005 54.1288C171.937 54.1554 171.882 54.2158 171.843 54.3084C171.803 54.401 171.783 54.5518 171.783 54.7601V57.6101L171.817 58.3194Z" fill="black"/>
<path d="M174.471 56.3518H175.526L174.959 54.706H174.912L174.294 56.26C174.287 56.2737 174.285 56.2858 174.287 56.2973C174.289 56.3085 174.294 56.3175 174.301 56.3243C174.308 56.3312 174.319 56.3368 174.335 56.341C174.351 56.3458 174.369 56.3483 174.39 56.3496C174.412 56.3513 174.438 56.3518 174.471 56.3518ZM173.721 57.7695C173.716 57.8149 173.709 57.8552 173.7 57.8903C173.691 57.9255 173.703 57.9546 173.738 57.9782C173.772 58.0022 173.799 58.021 173.821 58.0348C173.842 58.0485 173.88 58.0596 173.936 58.0686C173.992 58.0772 174.034 58.0832 174.065 58.0853C174.096 58.0879 174.14 58.0909 174.199 58.0952C174.217 58.1136 174.226 58.153 174.226 58.2143C174.226 58.2756 174.217 58.315 174.199 58.333C173.855 58.324 173.547 58.3198 173.276 58.3198C173.184 58.3198 172.965 58.324 172.621 58.333C172.599 58.315 172.587 58.276 172.587 58.216C172.587 58.156 172.599 58.1157 172.621 58.0952C172.741 58.087 172.835 58.0733 172.903 58.0549C172.971 58.0369 173.043 57.9932 173.12 57.9242C173.197 57.8552 173.262 57.7506 173.317 57.6105L174.823 54.0542C174.996 54.0542 175.251 53.9513 175.59 53.7456L177.022 57.7223C177.045 57.7922 177.076 57.8509 177.115 57.8972C177.155 57.9435 177.186 57.9778 177.209 58.0005C177.232 58.0232 177.28 58.0425 177.354 58.0583C177.429 58.0742 177.472 58.0819 177.484 58.0819C177.495 58.0819 177.549 58.087 177.646 58.0952C177.664 58.1136 177.673 58.153 177.673 58.2143C177.673 58.2756 177.664 58.315 177.646 58.333C177.303 58.324 176.993 58.3198 176.717 58.3198C176.266 58.3198 175.87 58.324 175.526 58.333C175.503 58.315 175.492 58.276 175.492 58.216C175.492 58.156 175.503 58.1157 175.526 58.0952C175.553 58.0952 175.59 58.0943 175.634 58.0922C175.68 58.09 175.715 58.0879 175.74 58.0853C175.764 58.0832 175.794 58.081 175.83 58.0785C175.864 58.0763 175.891 58.072 175.909 58.0652C175.927 58.0583 175.948 58.0515 175.972 58.0446C175.995 58.0378 176.013 58.0279 176.025 58.0142C176.036 58.0005 176.045 57.9842 176.052 57.9653C176.058 57.9456 176.061 57.9246 176.058 57.9019C176.056 57.8796 176.05 57.8522 176.041 57.8209L175.652 56.6873H174.332C174.248 56.6873 174.192 56.695 174.162 56.7109C174.132 56.7267 174.108 56.7585 174.087 56.8065L173.721 57.7695Z" fill="black"/>
<path d="M182.319 57.5115L182.142 54.6071H182.125L180.564 58.2851C180.538 58.3464 180.493 58.3755 180.432 58.3738C180.362 58.3738 180.316 58.3442 180.293 58.2851L178.926 54.8578H178.899L178.715 57.464C178.697 57.6812 178.716 57.836 178.771 57.929C178.827 58.0215 178.961 58.0768 179.174 58.0948C179.191 58.1132 179.201 58.1527 179.201 58.214C179.201 58.2752 179.191 58.3147 179.174 58.3327C178.895 58.3237 178.632 58.3194 178.383 58.3194C178.263 58.3194 178.063 58.3237 177.783 58.3327C177.764 58.3147 177.755 58.2757 177.755 58.2157C177.755 58.1557 177.764 58.1154 177.783 58.0948C177.972 58.0794 178.101 58.0275 178.169 57.9388C178.236 57.851 178.282 57.6971 178.305 57.4772L178.583 54.614C178.605 54.3585 178.594 54.2055 178.548 54.1554C178.501 54.1061 178.356 54.0744 178.111 54.0607C178.089 54.038 178.077 53.9985 178.076 53.9424C178.074 53.8854 178.086 53.846 178.111 53.8232L179.537 53.837L180.779 56.921H180.812L182.136 53.837L183.53 53.8232C183.553 53.846 183.564 53.8845 183.564 53.9402C183.564 53.996 183.553 54.0358 183.53 54.0607C183.302 54.0744 183.161 54.1112 183.11 54.1708C183.057 54.2308 183.039 54.3585 183.052 54.5522L183.262 57.4772C183.269 57.5865 183.275 57.668 183.279 57.7232C183.284 57.7785 183.295 57.8342 183.313 57.8882C183.331 57.9427 183.348 57.9782 183.364 57.9967C183.38 58.0147 183.411 58.034 183.457 58.0528C183.504 58.0721 183.549 58.0832 183.593 58.0871C183.637 58.0901 183.705 58.0927 183.795 58.0948C183.817 58.1132 183.829 58.1527 183.829 58.214C183.829 58.2752 183.817 58.3147 183.795 58.3327C183.489 58.3237 183.238 58.3194 183.039 58.3194C182.699 58.3194 182.312 58.3237 181.878 58.3327C181.855 58.3147 181.844 58.2757 181.844 58.2157C181.844 58.1557 181.855 58.1154 181.878 58.0948C181.971 58.0905 182.035 58.0875 182.071 58.0871C182.107 58.0858 182.149 58.0764 182.197 58.0597C182.244 58.0425 182.273 58.0258 182.283 58.0087C182.293 57.9915 182.305 57.9585 182.317 57.9084C182.33 57.8587 182.334 57.8068 182.332 57.7524C182.33 57.698 182.325 57.6178 182.319 57.5115Z" fill="black"/>
</g>
<defs>
<clipPath id="clip0_0_569">
<rect width="202.714" height="60" fill="white"/>
</clipPath>
</defs>
</svg>
