<svg width="30" height="30" viewBox="0 0 30 30" fill="none" xmlns="http://www.w3.org/2000/svg">
<path fill-rule="evenodd" clip-rule="evenodd" d="M13.3861 3.98038C12.5123 4.50683 10.1718 5.90671 8.18539 7.09104L4.57397 9.24495L4.59304 17.8262C4.6146 27.5636 4.56527 26.7793 5.17795 27.1171C5.67871 27.3932 6.51482 27.4156 15.7009 27.3945C24.1437 27.375 24.3074 27.3721 24.5785 27.2365C25.156 26.948 25.1286 27.2175 25.1518 21.5541L25.1717 16.5623H22.4511C20.9547 16.5623 18.4173 16.583 16.8122 16.6083L13.8939 16.6539L13.918 17.9381C13.9603 20.1994 13.8666 20.1509 18.1707 20.1534L21.0898 20.1551V21.7129C21.0898 23.4987 21.0604 23.6251 20.621 23.7437C20.1994 23.8573 9.3237 23.8477 9.09115 23.7337C8.58542 23.4858 8.62148 23.9675 8.60075 17.1617L8.58251 11.0697L9.11892 10.7638C9.69719 10.4338 10.7841 9.80747 13.372 8.31349L15.0157 7.36463L15.4447 7.63615C15.6806 7.78538 16.8218 8.52242 17.9808 9.27355C19.1394 10.0251 20.3287 10.7949 20.6235 10.9847L21.1586 11.3301L21.159 12.3743C21.159 14.1107 21.1354 14.0929 23.4912 14.1319L25.1676 14.1597L25.1493 11.7222L25.1315 9.28433L21.055 6.73702C18.8132 5.3359 16.566 3.9269 16.0615 3.60522C15.557 3.28396 15.106 3.02115 15.0596 3.02197C15.0132 3.02239 14.2604 3.45392 13.3861 3.98038Z" fill="#FBFBFB"/>
<path fill-rule="evenodd" clip-rule="evenodd" d="M14.7681 0.120425C14.6541 0.192139 14.4958 0.290798 14.4166 0.340128C14.3374 0.389457 14.1277 0.505941 13.9503 0.599211C13.7728 0.692067 13.6282 0.793213 13.6282 0.823474C13.6282 0.85415 13.5954 0.879021 13.5552 0.879021C13.5154 0.879021 13.2741 1.01416 13.0196 1.17997C12.7655 1.34537 12.4637 1.53316 12.3497 1.59658C12.2357 1.66 12.0492 1.77276 11.9352 1.84737C11.8212 1.92157 11.6658 2.01443 11.5899 2.0534C11.514 2.09236 11.3586 2.18522 11.2446 2.25983C11.1306 2.33403 10.9163 2.46586 10.7687 2.55249C10.4744 2.72494 10.4151 2.76183 9.98482 3.03916C9.8244 3.1432 9.66107 3.22777 9.62211 3.22777C9.58355 3.22777 9.55164 3.25264 9.55164 3.28332C9.55164 3.31358 9.41981 3.40726 9.25815 3.491C8.92445 3.66469 5.20525 5.94628 5.08794 6.0495C5.04566 6.08639 4.8786 6.18961 4.7161 6.27874C4.38779 6.45864 4.35712 6.47688 3.81739 6.8255C3.60847 6.96023 3.39084 7.09246 3.33363 7.11899C3.27684 7.14552 3.13673 7.22885 3.02273 7.30429C2.90874 7.37932 2.76904 7.4614 2.71183 7.48627C2.65504 7.51156 2.51493 7.59944 2.40093 7.68235C2.28694 7.76484 2.14724 7.85479 2.09003 7.88174C1.97065 7.93894 1.82597 8.02682 1.41807 8.29005C1.25723 8.39369 1.09391 8.47866 1.05536 8.47866C1.01639 8.47866 0.984885 8.50975 0.984885 8.54789C0.984885 8.58561 0.950479 8.6167 0.908611 8.6167C0.866329 8.6167 0.703003 8.70376 0.545895 8.81029C0.388372 8.91641 0.204733 9.02419 0.138408 9.04989C-0.190732 9.17591 0.0666937 9.2385 0.915658 9.2385H1.81395L1.82266 12.5722C1.82763 14.4057 1.85085 18.6882 1.87447 22.089L1.91759 28.2726L2.07967 28.6121C2.28694 29.0453 2.85485 29.6128 3.29923 29.8305L3.64453 30H14.9406H26.2366L26.5587 29.8412C27.0752 29.5867 27.4856 29.178 27.7368 28.6677L27.964 28.2063L27.9818 18.7247L28 9.24306L28.8457 9.22358L29.6913 9.2041L29.1732 8.86459C28.888 8.67805 28.4995 8.42685 28.3093 8.30622C28.1194 8.18559 27.7928 7.97542 27.5838 7.83945C27.3749 7.70307 27.1183 7.55301 27.0139 7.50617C26.9094 7.45891 26.824 7.39756 26.824 7.3702C26.824 7.34284 26.7697 7.3018 26.703 7.27983C26.5844 7.24004 26.3394 7.09661 26.2714 7.02697C26.2524 7.0079 26.0347 6.86986 25.7877 6.72063C25.5406 6.57098 25.3284 6.42382 25.3155 6.39273C25.3031 6.36206 25.2633 6.33677 25.2276 6.33677C25.165 6.33677 24.7833 6.09966 23.1438 5.04135C22.7172 4.76569 22.2824 4.50163 22.1779 4.45437C22.0735 4.40753 21.9876 4.34908 21.9876 4.32504C21.9876 4.30058 21.8944 4.24255 21.7804 4.19529C21.6664 4.14803 21.5731 4.08544 21.5731 4.05684C21.5731 4.02782 21.5188 3.98554 21.4525 3.96357C21.3211 3.91921 21.0761 3.77164 21.0205 3.70365C21.0015 3.68002 20.8618 3.59422 20.7096 3.51255C20.5575 3.43089 20.2002 3.20953 19.915 3.0205C19.6302 2.83189 19.2762 2.6068 19.1286 2.52057C18.797 2.3274 18.7522 2.29963 18.1532 1.90914C17.6201 1.56176 17.3146 1.3661 17.1405 1.25956C16.2476 0.714452 15.7982 0.430911 15.7696 0.394846C15.7506 0.370389 15.6884 0.32935 15.6316 0.303234C15.5744 0.277119 15.4347 0.19587 15.3207 0.123327C15.0641 -0.0404139 15.0256 -0.0408284 14.7681 0.120425ZM15.5806 3.24725C15.8376 3.40768 17.0891 4.19156 18.3621 4.98954C19.6348 5.78751 20.7527 6.48725 20.8456 6.54404C21.1855 6.75213 23.4277 8.15491 24.3024 8.70666L25.2003 9.27332L25.2185 11.7137L25.2368 14.154L23.4103 14.1317C21.0421 14.1026 21.091 14.1429 21.0885 12.2231L21.0877 11.346L20.2769 10.8183C19.8308 10.5285 19.1394 10.0808 18.7406 9.82341C18.3418 9.5664 17.7664 9.19456 17.4626 8.99766C17.1583 8.80076 16.6766 8.48944 16.3914 8.3058C16.1067 8.12217 15.6871 7.8494 15.46 7.69976L15.0463 7.42741L14.7345 7.59571C14.5629 7.68856 13.8939 8.06952 13.248 8.44219C10.755 9.88186 9.78212 10.4411 9.48282 10.6077C9.31162 10.7026 9.0542 10.8544 8.91035 10.9447L8.6492 11.1085L8.66868 17.2262L8.68816 23.3442L8.90621 23.5391C9.22001 23.8193 9.50894 23.8309 15.3899 23.8048C20.7768 23.7808 20.6951 23.7853 20.9318 23.4769C20.9923 23.3986 21.0168 22.9223 21.0185 21.7956L21.0205 20.2236H18.1847C13.8474 20.2236 13.8354 20.2166 13.8354 17.724V16.5621H18.6606C21.3144 16.5621 23.8651 16.5418 24.3281 16.5169L25.17 16.4717L25.1505 21.6152C25.129 27.4029 25.1704 26.9797 24.5951 27.2873L24.3024 27.4436L15.1134 27.4241C5.03405 27.4029 5.37562 27.4175 4.92544 26.9967C4.53039 26.6278 4.54283 26.9325 4.54283 17.7066V9.21322L5.89006 8.39327C6.63083 7.94226 7.29947 7.54348 7.37533 7.507C7.45161 7.47052 7.60747 7.38347 7.72188 7.31383C7.8363 7.24418 8.53603 6.82385 9.27639 6.3803C10.0167 5.93633 10.6692 5.54294 10.7264 5.50604C10.7832 5.46874 10.8922 5.4078 10.9681 5.37008C11.044 5.33235 11.9767 4.77439 13.0408 4.12979C15.2705 2.77883 14.9878 2.87707 15.5806 3.24725Z" fill="#EC1C24"/>
<path fill-rule="evenodd" clip-rule="evenodd" d="M4.54037 9.25614C4.52213 9.30382 4.51508 12.7312 4.52503 16.8732L4.54286 24.404L4.57726 16.787C4.59633 12.5973 4.60338 9.16992 4.5926 9.16992C4.58182 9.16992 4.5582 9.20847 4.54037 9.25614ZM8.61772 16.9424C8.61772 20.2102 8.62601 21.5371 8.63638 19.8906C8.64674 18.2445 8.64674 15.5707 8.63638 13.9491C8.62601 12.3274 8.61772 13.6742 8.61772 16.9424ZM21.0894 12.1612L21.1238 13.0732L21.1433 12.2155C21.1545 11.7433 21.1387 11.333 21.1093 11.3031C21.0794 11.2733 21.0707 11.6592 21.0894 12.1612ZM13.8508 17.6504L13.8661 18.7386L13.8869 17.6861L13.908 16.6336L15.858 16.6141L17.8079 16.5946L15.8215 16.5785L13.8355 16.5623L13.8508 17.6504ZM15.9599 20.2065C16.2733 20.2193 16.7861 20.2193 17.0999 20.2065C17.4133 20.1936 17.1567 20.1832 16.5299 20.1832C15.9027 20.1832 15.6461 20.1936 15.9599 20.2065ZM20.2412 20.2065L21.0164 20.2284L21.038 21.1416L21.0595 22.0549L21.0745 21.1048L21.0898 20.1551L20.2777 20.1696L19.4661 20.1845L20.2412 20.2065ZM6.18483 27.3899C6.2897 27.4057 6.44515 27.4052 6.53013 27.3887C6.61511 27.3725 6.5293 27.3592 6.33903 27.3601C6.14918 27.3605 6.07953 27.3737 6.18483 27.3899ZM17.6919 27.4612C18.8061 27.4716 20.6093 27.4716 21.6992 27.4612C22.789 27.4504 21.8774 27.4417 19.6733 27.4417C17.4693 27.4417 16.5776 27.4504 17.6919 27.4612Z" fill="#F46E70"/>
<path fill-rule="evenodd" clip-rule="evenodd" d="M25.197 11.7255C25.197 13.0744 25.2061 13.6265 25.2177 12.9521C25.2289 12.2776 25.2289 11.1737 25.2177 10.4993C25.2061 9.82484 25.197 10.3766 25.197 11.7255ZM24.3195 16.5432C24.4811 16.5577 24.7452 16.5577 24.9068 16.5432C25.0685 16.5287 24.9363 16.5171 24.6134 16.5171C24.29 16.5171 24.1582 16.5287 24.3195 16.5432ZM18.0641 20.2056C18.3187 20.2189 18.7539 20.2189 19.0312 20.206C19.3086 20.1927 19.1001 20.182 18.5678 20.1816C18.036 20.1816 17.8092 20.1923 18.0641 20.2056ZM21.0446 22.5726C21.0446 22.8955 21.0567 23.0277 21.0712 22.8661C21.0857 22.7048 21.0857 22.4403 21.0712 22.2791C21.0567 22.1174 21.0446 22.2497 21.0446 22.5726ZM19.9677 23.7959C20.0539 23.8124 20.1783 23.812 20.2442 23.7946C20.3101 23.7772 20.24 23.764 20.0879 23.7644C19.9358 23.7652 19.8819 23.7793 19.9677 23.7959ZM4.53418 25.0942C4.53418 25.5125 4.54579 25.6745 4.55947 25.4544C4.57315 25.2347 4.57315 24.8927 4.55905 24.6946C4.54537 24.4964 4.53418 24.6763 4.53418 25.0942ZM14.129 27.4603C14.4233 27.4732 14.9054 27.4732 15.1997 27.4603C15.4944 27.4471 15.2532 27.4367 14.6646 27.4367C14.0755 27.4367 13.8347 27.4471 14.129 27.4603Z" fill="#EC3C3E"/>
</svg>
